ISO-10303-21;
HEADER;
FILE_DESCRIPTION(('FreeCAD Model'),'2;1');
FILE_NAME('Open CASCADE Shape Model','2026-03-06T15:14:19',(''),(''),
  'Open CASCADE STEP processor 7.6','FreeCAD','Unknown');
FILE_SCHEMA(('AUTOMOTIVE_DESIGN { 1 0 10303 214 1 1 1 1 }'));
ENDSEC;
DATA;
#1 = APPLICATION_PROTOCOL_DEFINITION('international standard',
  'automotive_design',2000,#2);
#2 = APPLICATION_CONTEXT(
  'core data for automotive mechanical design processes');
#3 = SHAPE_DEFINITION_REPRESENTATION(#4,#10);
#4 = PRODUCT_DEFINITION_SHAPE('','',#5);
#5 = PRODUCT_DEFINITION('design','',#6,#9);
#6 = PRODUCT_DEFINITION_FORMATION('','',#7);
#7 = PRODUCT('container_v-sd','container_v-sd','',(#8));
#8 = PRODUCT_CONTEXT('',#2,'mechanical');
#9 = PRODUCT_DEFINITION_CONTEXT('part definition',#2,'design');
#10 = ADVANCED_BREP_SHAPE_REPRESENTATION('',(#11,#15),#2171);
#11 = AXIS2_PLACEMENT_3D('',#12,#13,#14);
#12 = CARTESIAN_POINT('',(0.,0.,0.));
#13 = DIRECTION('',(0.,0.,1.));
#14 = DIRECTION('',(1.,0.,-0.));
#15 = MANIFOLD_SOLID_BREP('',#16);
#16 = CLOSED_SHELL('',(#17,#73,#106,#139,#170,#237,#268,#463,#487,#512,
    #536,#561,#592,#617,#641,#666,#704,#736,#760,#778,#809,#827,#845,
    #877,#901,#925,#943,#975,#999,#1024,#1041,#1073,#1097,#1121,#1139,
    #1171,#1195,#1220,#1237,#1261,#1286,#1310,#1335,#1366,#1391,#1415,
    #1440,#1464,#1488,#1520,#1544,#1562,#1593,#1611,#1629,#1641,#1653,
    #1665,#1677,#1701,#1726,#1750,#1775,#1834,#1851,#1868,#1885,#1909,
    #1933,#1965,#1989,#2007,#2043,#2061,#2079,#2096,#2113,#2130,#2142,
    #2159));
#17 = ADVANCED_FACE('',(#18),#68,.F.);
#18 = FACE_BOUND('',#19,.F.);
#19 = EDGE_LOOP('',(#20,#30,#38,#46,#54,#62));
#20 = ORIENTED_EDGE('',*,*,#21,.T.);
#21 = EDGE_CURVE('',#22,#24,#26,.T.);
#22 = VERTEX_POINT('',#23);
#23 = CARTESIAN_POINT('',(-6.5,-10.25,4.75));
#24 = VERTEX_POINT('',#25);
#25 = CARTESIAN_POINT('',(-6.5,-10.25,21.));
#26 = LINE('',#27,#28);
#27 = CARTESIAN_POINT('',(-6.5,-10.25,4.75));
#28 = VECTOR('',#29,1.);
#29 = DIRECTION('',(0.,0.,1.));
#30 = ORIENTED_EDGE('',*,*,#31,.T.);
#31 = EDGE_CURVE('',#24,#32,#34,.T.);
#32 = VERTEX_POINT('',#33);
#33 = CARTESIAN_POINT('',(27.5,-10.25,21.));
#34 = LINE('',#35,#36);
#35 = CARTESIAN_POINT('',(-6.5,-10.25,21.));
#36 = VECTOR('',#37,1.);
#37 = DIRECTION('',(1.,0.,0.));
#38 = ORIENTED_EDGE('',*,*,#39,.F.);
#39 = EDGE_CURVE('',#40,#32,#42,.T.);
#40 = VERTEX_POINT('',#41);
#41 = CARTESIAN_POINT('',(27.5,-10.25,4.75));
#42 = LINE('',#43,#44);
#43 = CARTESIAN_POINT('',(27.5,-10.25,4.75));
#44 = VECTOR('',#45,1.);
#45 = DIRECTION('',(0.,0.,1.));
#46 = ORIENTED_EDGE('',*,*,#47,.F.);
#47 = EDGE_CURVE('',#48,#40,#50,.T.);
#48 = VERTEX_POINT('',#49);
#49 = CARTESIAN_POINT('',(14.5,-10.25,4.75));
#50 = LINE('',#51,#52);
#51 = CARTESIAN_POINT('',(-6.5,-10.25,4.75));
#52 = VECTOR('',#53,1.);
#53 = DIRECTION('',(1.,0.,0.));
#54 = ORIENTED_EDGE('',*,*,#55,.F.);
#55 = EDGE_CURVE('',#56,#48,#58,.T.);
#56 = VERTEX_POINT('',#57);
#57 = CARTESIAN_POINT('',(6.5,-10.25,4.75));
#58 = LINE('',#59,#60);
#59 = CARTESIAN_POINT('',(-6.5,-10.25,4.75));
#60 = VECTOR('',#61,1.);
#61 = DIRECTION('',(1.,0.,0.));
#62 = ORIENTED_EDGE('',*,*,#63,.F.);
#63 = EDGE_CURVE('',#22,#56,#64,.T.);
#64 = LINE('',#65,#66);
#65 = CARTESIAN_POINT('',(-6.5,-10.25,4.75));
#66 = VECTOR('',#67,1.);
#67 = DIRECTION('',(1.,0.,0.));
#68 = PLANE('',#69);
#69 = AXIS2_PLACEMENT_3D('',#70,#71,#72);
#70 = CARTESIAN_POINT('',(-6.5,-10.25,4.75));
#71 = DIRECTION('',(0.,1.,0.));
#72 = DIRECTION('',(1.,0.,0.));
#73 = ADVANCED_FACE('',(#74),#101,.T.);
#74 = FACE_BOUND('',#75,.F.);
#75 = EDGE_LOOP('',(#76,#86,#93,#94));
#76 = ORIENTED_EDGE('',*,*,#77,.T.);
#77 = EDGE_CURVE('',#78,#80,#82,.T.);
#78 = VERTEX_POINT('',#79);
#79 = CARTESIAN_POINT('',(-10.25,-6.5,4.75));
#80 = VERTEX_POINT('',#81);
#81 = CARTESIAN_POINT('',(-10.25,-6.5,21.));
#82 = LINE('',#83,#84);
#83 = CARTESIAN_POINT('',(-10.25,-6.5,4.75));
#84 = VECTOR('',#85,1.);
#85 = DIRECTION('',(0.,0.,1.));
#86 = ORIENTED_EDGE('',*,*,#87,.T.);
#87 = EDGE_CURVE('',#80,#24,#88,.T.);
#88 = CIRCLE('',#89,3.75);
#89 = AXIS2_PLACEMENT_3D('',#90,#91,#92);
#90 = CARTESIAN_POINT('',(-6.5,-6.5,21.));
#91 = DIRECTION('',(0.,0.,1.));
#92 = DIRECTION('',(1.,0.,0.));
#93 = ORIENTED_EDGE('',*,*,#21,.F.);
#94 = ORIENTED_EDGE('',*,*,#95,.F.);
#95 = EDGE_CURVE('',#78,#22,#96,.T.);
#96 = CIRCLE('',#97,3.75);
#97 = AXIS2_PLACEMENT_3D('',#98,#99,#100);
#98 = CARTESIAN_POINT('',(-6.5,-6.5,4.75));
#99 = DIRECTION('',(0.,0.,1.));
#100 = DIRECTION('',(1.,0.,0.));
#101 = CYLINDRICAL_SURFACE('',#102,3.75);
#102 = AXIS2_PLACEMENT_3D('',#103,#104,#105);
#103 = CARTESIAN_POINT('',(-6.5,-6.5,4.75));
#104 = DIRECTION('',(-0.,-0.,-1.));
#105 = DIRECTION('',(1.,0.,0.));
#106 = ADVANCED_FACE('',(#107),#134,.T.);
#107 = FACE_BOUND('',#108,.F.);
#108 = EDGE_LOOP('',(#109,#110,#119,#127));
#109 = ORIENTED_EDGE('',*,*,#39,.T.);
#110 = ORIENTED_EDGE('',*,*,#111,.T.);
#111 = EDGE_CURVE('',#32,#112,#114,.T.);
#112 = VERTEX_POINT('',#113);
#113 = CARTESIAN_POINT('',(31.25,-6.5,21.));
#114 = CIRCLE('',#115,3.75);
#115 = AXIS2_PLACEMENT_3D('',#116,#117,#118);
#116 = CARTESIAN_POINT('',(27.5,-6.5,21.));
#117 = DIRECTION('',(0.,0.,1.));
#118 = DIRECTION('',(1.,0.,0.));
#119 = ORIENTED_EDGE('',*,*,#120,.F.);
#120 = EDGE_CURVE('',#121,#112,#123,.T.);
#121 = VERTEX_POINT('',#122);
#122 = CARTESIAN_POINT('',(31.25,-6.5,4.75));
#123 = LINE('',#124,#125);
#124 = CARTESIAN_POINT('',(31.25,-6.5,4.75));
#125 = VECTOR('',#126,1.);
#126 = DIRECTION('',(0.,0.,1.));
#127 = ORIENTED_EDGE('',*,*,#128,.F.);
#128 = EDGE_CURVE('',#40,#121,#129,.T.);
#129 = CIRCLE('',#130,3.75);
#130 = AXIS2_PLACEMENT_3D('',#131,#132,#133);
#131 = CARTESIAN_POINT('',(27.5,-6.5,4.75));
#132 = DIRECTION('',(0.,0.,1.));
#133 = DIRECTION('',(1.,0.,0.));
#134 = CYLINDRICAL_SURFACE('',#135,3.75);
#135 = AXIS2_PLACEMENT_3D('',#136,#137,#138);
#136 = CARTESIAN_POINT('',(27.5,-6.5,4.75));
#137 = DIRECTION('',(-0.,-0.,-1.));
#138 = DIRECTION('',(1.,0.,0.));
#139 = ADVANCED_FACE('',(#140),#165,.T.);
#140 = FACE_BOUND('',#141,.T.);
#141 = EDGE_LOOP('',(#142,#143,#151,#159));
#142 = ORIENTED_EDGE('',*,*,#63,.F.);
#143 = ORIENTED_EDGE('',*,*,#144,.T.);
#144 = EDGE_CURVE('',#22,#145,#147,.T.);
#145 = VERTEX_POINT('',#146);
#146 = CARTESIAN_POINT('',(-6.5,-8.1,2.6));
#147 = LINE('',#148,#149);
#148 = CARTESIAN_POINT('',(-6.5,-10.25,4.75));
#149 = VECTOR('',#150,1.);
#150 = DIRECTION('',(-1.570092458684E-16,0.707106781187,-0.707106781187)
  );
#151 = ORIENTED_EDGE('',*,*,#152,.T.);
#152 = EDGE_CURVE('',#145,#153,#155,.T.);
#153 = VERTEX_POINT('',#154);
#154 = CARTESIAN_POINT('',(6.5,-8.1,2.6));
#155 = LINE('',#156,#157);
#156 = CARTESIAN_POINT('',(-6.5,-8.1,2.6));
#157 = VECTOR('',#158,1.);
#158 = DIRECTION('',(1.,1.110223024625E-16,-1.110223024625E-16));
#159 = ORIENTED_EDGE('',*,*,#160,.F.);
#160 = EDGE_CURVE('',#56,#153,#161,.T.);
#161 = LINE('',#162,#163);
#162 = CARTESIAN_POINT('',(6.5,-10.25,4.75));
#163 = VECTOR('',#164,1.);
#164 = DIRECTION('',(-1.570092458684E-16,0.707106781187,-0.707106781187)
  );
#165 = PLANE('',#166);
#166 = AXIS2_PLACEMENT_3D('',#167,#168,#169);
#167 = CARTESIAN_POINT('',(-6.5,-10.25,4.75));
#168 = DIRECTION('',(0.,-0.707106781187,-0.707106781187));
#169 = DIRECTION('',(-1.570092458684E-16,0.707106781187,-0.707106781187)
  );
#170 = ADVANCED_FACE('',(#171),#232,.F.);
#171 = FACE_BOUND('',#172,.F.);
#172 = EDGE_LOOP('',(#173,#182,#183,#192,#200,#209,#217,#226));
#173 = ORIENTED_EDGE('',*,*,#174,.F.);
#174 = EDGE_CURVE('',#56,#175,#177,.T.);
#175 = VERTEX_POINT('',#176);
#176 = CARTESIAN_POINT('',(10.25,-6.5,4.75));
#177 = CIRCLE('',#178,3.75);
#178 = AXIS2_PLACEMENT_3D('',#179,#180,#181);
#179 = CARTESIAN_POINT('',(6.5,-6.5,4.75));
#180 = DIRECTION('',(0.,0.,1.));
#181 = DIRECTION('',(1.,0.,0.));
#182 = ORIENTED_EDGE('',*,*,#55,.T.);
#183 = ORIENTED_EDGE('',*,*,#184,.F.);
#184 = EDGE_CURVE('',#185,#48,#187,.T.);
#185 = VERTEX_POINT('',#186);
#186 = CARTESIAN_POINT('',(10.75,-6.5,4.75));
#187 = CIRCLE('',#188,3.75);
#188 = AXIS2_PLACEMENT_3D('',#189,#190,#191);
#189 = CARTESIAN_POINT('',(14.5,-6.5,4.75));
#190 = DIRECTION('',(0.,0.,1.));
#191 = DIRECTION('',(1.,0.,0.));
#192 = ORIENTED_EDGE('',*,*,#193,.F.);
#193 = EDGE_CURVE('',#194,#185,#196,.T.);
#194 = VERTEX_POINT('',#195);
#195 = CARTESIAN_POINT('',(10.75,6.5,4.75));
#196 = LINE('',#197,#198);
#197 = CARTESIAN_POINT('',(10.75,6.5,4.75));
#198 = VECTOR('',#199,1.);
#199 = DIRECTION('',(0.,-1.,0.));
#200 = ORIENTED_EDGE('',*,*,#201,.F.);
#201 = EDGE_CURVE('',#202,#194,#204,.T.);
#202 = VERTEX_POINT('',#203);
#203 = CARTESIAN_POINT('',(14.5,10.25,4.75));
#204 = CIRCLE('',#205,3.75);
#205 = AXIS2_PLACEMENT_3D('',#206,#207,#208);
#206 = CARTESIAN_POINT('',(14.5,6.5,4.75));
#207 = DIRECTION('',(0.,0.,1.));
#208 = DIRECTION('',(1.,0.,0.));
#209 = ORIENTED_EDGE('',*,*,#210,.T.);
#210 = EDGE_CURVE('',#202,#211,#213,.T.);
#211 = VERTEX_POINT('',#212);
#212 = CARTESIAN_POINT('',(6.5,10.25,4.75));
#213 = LINE('',#214,#215);
#214 = CARTESIAN_POINT('',(27.500000000047,10.249999999911,4.75));
#215 = VECTOR('',#216,1.);
#216 = DIRECTION('',(-1.,0.,0.));
#217 = ORIENTED_EDGE('',*,*,#218,.F.);
#218 = EDGE_CURVE('',#219,#211,#221,.T.);
#219 = VERTEX_POINT('',#220);
#220 = CARTESIAN_POINT('',(10.25,6.5,4.75));
#221 = CIRCLE('',#222,3.75);
#222 = AXIS2_PLACEMENT_3D('',#223,#224,#225);
#223 = CARTESIAN_POINT('',(6.5,6.5,4.75));
#224 = DIRECTION('',(0.,0.,1.));
#225 = DIRECTION('',(1.,0.,0.));
#226 = ORIENTED_EDGE('',*,*,#227,.F.);
#227 = EDGE_CURVE('',#175,#219,#228,.T.);
#228 = LINE('',#229,#230);
#229 = CARTESIAN_POINT('',(10.25,-6.5,4.75));
#230 = VECTOR('',#231,1.);
#231 = DIRECTION('',(0.,1.,0.));
#232 = PLANE('',#233);
#233 = AXIS2_PLACEMENT_3D('',#234,#235,#236);
#234 = CARTESIAN_POINT('',(10.5,-4.426082498651E-11,4.75));
#235 = DIRECTION('',(-5.546886389819E-33,-1.029336935665E-32,1.));
#236 = DIRECTION('',(0.,1.,1.029336935665E-32));
#237 = ADVANCED_FACE('',(#238),#263,.T.);
#238 = FACE_BOUND('',#239,.T.);
#239 = EDGE_LOOP('',(#240,#241,#249,#257));
#240 = ORIENTED_EDGE('',*,*,#47,.F.);
#241 = ORIENTED_EDGE('',*,*,#242,.T.);
#242 = EDGE_CURVE('',#48,#243,#245,.T.);
#243 = VERTEX_POINT('',#244);
#244 = CARTESIAN_POINT('',(14.5,-8.1,2.6));
#245 = LINE('',#246,#247);
#246 = CARTESIAN_POINT('',(14.5,-10.25,4.75));
#247 = VECTOR('',#248,1.);
#248 = DIRECTION('',(-1.570092458684E-16,0.707106781187,-0.707106781187)
  );
#249 = ORIENTED_EDGE('',*,*,#250,.T.);
#250 = EDGE_CURVE('',#243,#251,#253,.T.);
#251 = VERTEX_POINT('',#252);
#252 = CARTESIAN_POINT('',(27.5,-8.1,2.6));
#253 = LINE('',#254,#255);
#254 = CARTESIAN_POINT('',(14.5,-8.1,2.6));
#255 = VECTOR('',#256,1.);
#256 = DIRECTION('',(1.,1.110223024625E-16,-1.110223024625E-16));
#257 = ORIENTED_EDGE('',*,*,#258,.F.);
#258 = EDGE_CURVE('',#40,#251,#259,.T.);
#259 = LINE('',#260,#261);
#260 = CARTESIAN_POINT('',(27.5,-10.25,4.75));
#261 = VECTOR('',#262,1.);
#262 = DIRECTION('',(-1.570092458684E-16,0.707106781187,-0.707106781187)
  );
#263 = PLANE('',#264);
#264 = AXIS2_PLACEMENT_3D('',#265,#266,#267);
#265 = CARTESIAN_POINT('',(14.5,-10.25,4.75));
#266 = DIRECTION('',(0.,-0.707106781187,-0.707106781187));
#267 = DIRECTION('',(-1.570092458684E-16,0.707106781187,-0.707106781187)
  );
#268 = ADVANCED_FACE('',(#269,#314,#350,#386,#422),#458,.T.);
#269 = FACE_BOUND('',#270,.T.);
#270 = EDGE_LOOP('',(#271,#272,#273,#281,#290,#298,#307,#313));
#271 = ORIENTED_EDGE('',*,*,#31,.T.);
#272 = ORIENTED_EDGE('',*,*,#111,.T.);
#273 = ORIENTED_EDGE('',*,*,#274,.T.);
#274 = EDGE_CURVE('',#112,#275,#277,.T.);
#275 = VERTEX_POINT('',#276);
#276 = CARTESIAN_POINT('',(31.25,6.499999999911,21.));
#277 = LINE('',#278,#279);
#278 = CARTESIAN_POINT('',(31.25,-6.5,21.));
#279 = VECTOR('',#280,1.);
#280 = DIRECTION('',(0.,1.,0.));
#281 = ORIENTED_EDGE('',*,*,#282,.T.);
#282 = EDGE_CURVE('',#275,#283,#285,.T.);
#283 = VERTEX_POINT('',#284);
#284 = CARTESIAN_POINT('',(27.500000000047,10.249999999911,21.));
#285 = CIRCLE('',#286,3.75);
#286 = AXIS2_PLACEMENT_3D('',#287,#288,#289);
#287 = CARTESIAN_POINT('',(27.5,6.499999999911,21.));
#288 = DIRECTION('',(0.,0.,1.));
#289 = DIRECTION('',(1.,0.,0.));
#290 = ORIENTED_EDGE('',*,*,#291,.T.);
#291 = EDGE_CURVE('',#283,#292,#294,.T.);
#292 = VERTEX_POINT('',#293);
#293 = CARTESIAN_POINT('',(-6.500000000047,10.249999999911,21.));
#294 = LINE('',#295,#296);
#295 = CARTESIAN_POINT('',(27.500000000047,10.249999999911,21.));
#296 = VECTOR('',#297,1.);
#297 = DIRECTION('',(-1.,0.,0.));
#298 = ORIENTED_EDGE('',*,*,#299,.T.);
#299 = EDGE_CURVE('',#292,#300,#302,.T.);
#300 = VERTEX_POINT('',#301);
#301 = CARTESIAN_POINT('',(-10.25,6.499999999911,21.));
#302 = CIRCLE('',#303,3.75);
#303 = AXIS2_PLACEMENT_3D('',#304,#305,#306);
#304 = CARTESIAN_POINT('',(-6.5,6.499999999911,21.));
#305 = DIRECTION('',(0.,0.,1.));
#306 = DIRECTION('',(1.,0.,0.));
#307 = ORIENTED_EDGE('',*,*,#308,.T.);
#308 = EDGE_CURVE('',#300,#80,#309,.T.);
#309 = LINE('',#310,#311);
#310 = CARTESIAN_POINT('',(-10.25,6.499999999911,21.));
#311 = VECTOR('',#312,1.);
#312 = DIRECTION('',(0.,-1.,0.));
#313 = ORIENTED_EDGE('',*,*,#87,.T.);
#314 = FACE_BOUND('',#315,.T.);
#315 = EDGE_LOOP('',(#316,#327,#335,#344));
#316 = ORIENTED_EDGE('',*,*,#317,.F.);
#317 = EDGE_CURVE('',#318,#320,#322,.T.);
#318 = VERTEX_POINT('',#319);
#319 = CARTESIAN_POINT('',(2.875,-5.3625,21.));
#320 = VERTEX_POINT('',#321);
#321 = CARTESIAN_POINT('',(2.875,-8.5125,21.));
#322 = CIRCLE('',#323,1.575);
#323 = AXIS2_PLACEMENT_3D('',#324,#325,#326);
#324 = CARTESIAN_POINT('',(2.875,-6.9375,21.));
#325 = DIRECTION('',(0.,0.,1.));
#326 = DIRECTION('',(1.,0.,0.));
#327 = ORIENTED_EDGE('',*,*,#328,.T.);
#328 = EDGE_CURVE('',#318,#329,#331,.T.);
#329 = VERTEX_POINT('',#330);
#330 = CARTESIAN_POINT('',(26.875,-5.3625,21.));
#331 = LINE('',#332,#333);
#332 = CARTESIAN_POINT('',(2.875,-5.3625,21.));
#333 = VECTOR('',#334,1.);
#334 = DIRECTION('',(1.,0.,0.));
#335 = ORIENTED_EDGE('',*,*,#336,.F.);
#336 = EDGE_CURVE('',#337,#329,#339,.T.);
#337 = VERTEX_POINT('',#338);
#338 = CARTESIAN_POINT('',(26.875,-8.5125,21.));
#339 = CIRCLE('',#340,1.575);
#340 = AXIS2_PLACEMENT_3D('',#341,#342,#343);
#341 = CARTESIAN_POINT('',(26.875,-6.9375,21.));
#342 = DIRECTION('',(0.,0.,1.));
#343 = DIRECTION('',(1.,0.,0.));
#344 = ORIENTED_EDGE('',*,*,#345,.F.);
#345 = EDGE_CURVE('',#320,#337,#346,.T.);
#346 = LINE('',#347,#348);
#347 = CARTESIAN_POINT('',(2.875,-8.5125,21.));
#348 = VECTOR('',#349,1.);
#349 = DIRECTION('',(1.,7.401486830834E-17,0.));
#350 = FACE_BOUND('',#351,.T.);
#351 = EDGE_LOOP('',(#352,#363,#371,#380));
#352 = ORIENTED_EDGE('',*,*,#353,.F.);
#353 = EDGE_CURVE('',#354,#356,#358,.T.);
#354 = VERTEX_POINT('',#355);
#355 = CARTESIAN_POINT('',(2.875,3.8875,21.));
#356 = VERTEX_POINT('',#357);
#357 = CARTESIAN_POINT('',(2.875,0.7375,21.));
#358 = CIRCLE('',#359,1.575);
#359 = AXIS2_PLACEMENT_3D('',#360,#361,#362);
#360 = CARTESIAN_POINT('',(2.875,2.3125,21.));
#361 = DIRECTION('',(0.,0.,1.));
#362 = DIRECTION('',(1.,0.,0.));
#363 = ORIENTED_EDGE('',*,*,#364,.T.);
#364 = EDGE_CURVE('',#354,#365,#367,.T.);
#365 = VERTEX_POINT('',#366);
#366 = CARTESIAN_POINT('',(26.875,3.8875,21.));
#367 = LINE('',#368,#369);
#368 = CARTESIAN_POINT('',(2.875,3.8875,21.));
#369 = VECTOR('',#370,1.);
#370 = DIRECTION('',(1.,0.,0.));
#371 = ORIENTED_EDGE('',*,*,#372,.F.);
#372 = EDGE_CURVE('',#373,#365,#375,.T.);
#373 = VERTEX_POINT('',#374);
#374 = CARTESIAN_POINT('',(26.875,0.7375,21.));
#375 = CIRCLE('',#376,1.575);
#376 = AXIS2_PLACEMENT_3D('',#377,#378,#379);
#377 = CARTESIAN_POINT('',(26.875,2.3125,21.));
#378 = DIRECTION('',(0.,0.,1.));
#379 = DIRECTION('',(1.,0.,0.));
#380 = ORIENTED_EDGE('',*,*,#381,.F.);
#381 = EDGE_CURVE('',#356,#373,#382,.T.);
#382 = LINE('',#383,#384);
#383 = CARTESIAN_POINT('',(2.875,0.7375,21.));
#384 = VECTOR('',#385,1.);
#385 = DIRECTION('',(1.,7.401486830834E-17,0.));
#386 = FACE_BOUND('',#387,.T.);
#387 = EDGE_LOOP('',(#388,#399,#407,#416));
#388 = ORIENTED_EDGE('',*,*,#389,.F.);
#389 = EDGE_CURVE('',#390,#392,#394,.T.);
#390 = VERTEX_POINT('',#391);
#391 = CARTESIAN_POINT('',(-5.875,-0.7375,21.));
#392 = VERTEX_POINT('',#393);
#393 = CARTESIAN_POINT('',(-5.875,-3.8875,21.));
#394 = CIRCLE('',#395,1.575);
#395 = AXIS2_PLACEMENT_3D('',#396,#397,#398);
#396 = CARTESIAN_POINT('',(-5.875,-2.3125,21.));
#397 = DIRECTION('',(0.,0.,1.));
#398 = DIRECTION('',(1.,0.,0.));
#399 = ORIENTED_EDGE('',*,*,#400,.T.);
#400 = EDGE_CURVE('',#390,#401,#403,.T.);
#401 = VERTEX_POINT('',#402);
#402 = CARTESIAN_POINT('',(18.125,-0.7375,21.));
#403 = LINE('',#404,#405);
#404 = CARTESIAN_POINT('',(-5.875,-0.7375,21.));
#405 = VECTOR('',#406,1.);
#406 = DIRECTION('',(1.,0.,0.));
#407 = ORIENTED_EDGE('',*,*,#408,.F.);
#408 = EDGE_CURVE('',#409,#401,#411,.T.);
#409 = VERTEX_POINT('',#410);
#410 = CARTESIAN_POINT('',(18.125,-3.8875,21.));
#411 = CIRCLE('',#412,1.575);
#412 = AXIS2_PLACEMENT_3D('',#413,#414,#415);
#413 = CARTESIAN_POINT('',(18.125,-2.3125,21.));
#414 = DIRECTION('',(0.,0.,1.));
#415 = DIRECTION('',(1.,0.,0.));
#416 = ORIENTED_EDGE('',*,*,#417,.F.);
#417 = EDGE_CURVE('',#392,#409,#418,.T.);
#418 = LINE('',#419,#420);
#419 = CARTESIAN_POINT('',(-5.875,-3.8875,21.));
#420 = VECTOR('',#421,1.);
#421 = DIRECTION('',(1.,0.,0.));
#422 = FACE_BOUND('',#423,.T.);
#423 = EDGE_LOOP('',(#424,#435,#443,#452));
#424 = ORIENTED_EDGE('',*,*,#425,.F.);
#425 = EDGE_CURVE('',#426,#428,#430,.T.);
#426 = VERTEX_POINT('',#427);
#427 = CARTESIAN_POINT('',(-5.875,8.5125,21.));
#428 = VERTEX_POINT('',#429);
#429 = CARTESIAN_POINT('',(-5.875,5.3625,21.));
#430 = CIRCLE('',#431,1.575);
#431 = AXIS2_PLACEMENT_3D('',#432,#433,#434);
#432 = CARTESIAN_POINT('',(-5.875,6.9375,21.));
#433 = DIRECTION('',(0.,0.,1.));
#434 = DIRECTION('',(1.,0.,0.));
#435 = ORIENTED_EDGE('',*,*,#436,.T.);
#436 = EDGE_CURVE('',#426,#437,#439,.T.);
#437 = VERTEX_POINT('',#438);
#438 = CARTESIAN_POINT('',(18.125,8.5125,21.));
#439 = LINE('',#440,#441);
#440 = CARTESIAN_POINT('',(-5.875,8.5125,21.));
#441 = VECTOR('',#442,1.);
#442 = DIRECTION('',(1.,0.,0.));
#443 = ORIENTED_EDGE('',*,*,#444,.F.);
#444 = EDGE_CURVE('',#445,#437,#447,.T.);
#445 = VERTEX_POINT('',#446);
#446 = CARTESIAN_POINT('',(18.125,5.3625,21.));
#447 = CIRCLE('',#448,1.575);
#448 = AXIS2_PLACEMENT_3D('',#449,#450,#451);
#449 = CARTESIAN_POINT('',(18.125,6.9375,21.));
#450 = DIRECTION('',(0.,0.,1.));
#451 = DIRECTION('',(1.,0.,0.));
#452 = ORIENTED_EDGE('',*,*,#453,.F.);
#453 = EDGE_CURVE('',#428,#445,#454,.T.);
#454 = LINE('',#455,#456);
#455 = CARTESIAN_POINT('',(-5.875,5.3625,21.));
#456 = VECTOR('',#457,1.);
#457 = DIRECTION('',(1.,0.,0.));
#458 = PLANE('',#459);
#459 = AXIS2_PLACEMENT_3D('',#460,#461,#462);
#460 = CARTESIAN_POINT('',(10.5,-4.426082498651E-11,21.));
#461 = DIRECTION('',(-5.546886389819E-33,-1.029336935665E-32,1.));
#462 = DIRECTION('',(0.,1.,1.029336935665E-32));
#463 = ADVANCED_FACE('',(#464),#482,.F.);
#464 = FACE_BOUND('',#465,.F.);
#465 = EDGE_LOOP('',(#466,#474,#475,#476));
#466 = ORIENTED_EDGE('',*,*,#467,.T.);
#467 = EDGE_CURVE('',#468,#300,#470,.T.);
#468 = VERTEX_POINT('',#469);
#469 = CARTESIAN_POINT('',(-10.25,6.5,4.75));
#470 = LINE('',#471,#472);
#471 = CARTESIAN_POINT('',(-10.25,6.499999999911,4.75));
#472 = VECTOR('',#473,1.);
#473 = DIRECTION('',(0.,0.,1.));
#474 = ORIENTED_EDGE('',*,*,#308,.T.);
#475 = ORIENTED_EDGE('',*,*,#77,.F.);
#476 = ORIENTED_EDGE('',*,*,#477,.F.);
#477 = EDGE_CURVE('',#468,#78,#478,.T.);
#478 = LINE('',#479,#480);
#479 = CARTESIAN_POINT('',(-10.25,6.499999999911,4.75));
#480 = VECTOR('',#481,1.);
#481 = DIRECTION('',(0.,-1.,0.));
#482 = PLANE('',#483);
#483 = AXIS2_PLACEMENT_3D('',#484,#485,#486);
#484 = CARTESIAN_POINT('',(-10.25,6.499999999911,4.75));
#485 = DIRECTION('',(1.,0.,0.));
#486 = DIRECTION('',(0.,-1.,0.));
#487 = ADVANCED_FACE('',(#488),#507,.T.);
#488 = FACE_BOUND('',#489,.T.);
#489 = EDGE_LOOP('',(#490,#491,#499,#506));
#490 = ORIENTED_EDGE('',*,*,#95,.F.);
#491 = ORIENTED_EDGE('',*,*,#492,.T.);
#492 = EDGE_CURVE('',#78,#493,#495,.T.);
#493 = VERTEX_POINT('',#494);
#494 = CARTESIAN_POINT('',(-8.1,-6.5,2.6));
#495 = LINE('',#496,#497);
#496 = CARTESIAN_POINT('',(-10.25,-6.5,4.75));
#497 = VECTOR('',#498,1.);
#498 = DIRECTION('',(0.707106781187,1.567122079946E-16,-0.707106781187)
  );
#499 = ORIENTED_EDGE('',*,*,#500,.T.);
#500 = EDGE_CURVE('',#493,#145,#501,.T.);
#501 = CIRCLE('',#502,1.6);
#502 = AXIS2_PLACEMENT_3D('',#503,#504,#505);
#503 = CARTESIAN_POINT('',(-6.5,-6.5,2.6));
#504 = DIRECTION('',(0.,-0.,1.));
#505 = DIRECTION('',(1.,2.368475785867E-16,0.));
#506 = ORIENTED_EDGE('',*,*,#144,.F.);
#507 = CONICAL_SURFACE('',#508,3.75,0.785398163397);
#508 = AXIS2_PLACEMENT_3D('',#509,#510,#511);
#509 = CARTESIAN_POINT('',(-6.5,-6.5,4.75));
#510 = DIRECTION('',(0.,0.,1.));
#511 = DIRECTION('',(1.,2.368475785867E-16,0.));
#512 = ADVANCED_FACE('',(#513),#531,.F.);
#513 = FACE_BOUND('',#514,.F.);
#514 = EDGE_LOOP('',(#515,#516,#517,#525));
#515 = ORIENTED_EDGE('',*,*,#120,.T.);
#516 = ORIENTED_EDGE('',*,*,#274,.T.);
#517 = ORIENTED_EDGE('',*,*,#518,.F.);
#518 = EDGE_CURVE('',#519,#275,#521,.T.);
#519 = VERTEX_POINT('',#520);
#520 = CARTESIAN_POINT('',(31.25,6.5,4.75));
#521 = LINE('',#522,#523);
#522 = CARTESIAN_POINT('',(31.25,6.499999999911,4.75));
#523 = VECTOR('',#524,1.);
#524 = DIRECTION('',(0.,0.,1.));
#525 = ORIENTED_EDGE('',*,*,#526,.F.);
#526 = EDGE_CURVE('',#121,#519,#527,.T.);
#527 = LINE('',#528,#529);
#528 = CARTESIAN_POINT('',(31.25,-6.5,4.75));
#529 = VECTOR('',#530,1.);
#530 = DIRECTION('',(0.,1.,0.));
#531 = PLANE('',#532);
#532 = AXIS2_PLACEMENT_3D('',#533,#534,#535);
#533 = CARTESIAN_POINT('',(31.25,-6.5,4.75));
#534 = DIRECTION('',(-1.,0.,0.));
#535 = DIRECTION('',(0.,1.,0.));
#536 = ADVANCED_FACE('',(#537),#556,.T.);
#537 = FACE_BOUND('',#538,.T.);
#538 = EDGE_LOOP('',(#539,#540,#541,#550));
#539 = ORIENTED_EDGE('',*,*,#128,.F.);
#540 = ORIENTED_EDGE('',*,*,#258,.T.);
#541 = ORIENTED_EDGE('',*,*,#542,.T.);
#542 = EDGE_CURVE('',#251,#543,#545,.T.);
#543 = VERTEX_POINT('',#544);
#544 = CARTESIAN_POINT('',(29.1,-6.5,2.6));
#545 = CIRCLE('',#546,1.6);
#546 = AXIS2_PLACEMENT_3D('',#547,#548,#549);
#547 = CARTESIAN_POINT('',(27.5,-6.5,2.6));
#548 = DIRECTION('',(0.,-0.,1.));
#549 = DIRECTION('',(1.,2.368475785867E-16,0.));
#550 = ORIENTED_EDGE('',*,*,#551,.T.);
#551 = EDGE_CURVE('',#543,#121,#552,.T.);
#552 = LINE('',#553,#554);
#553 = CARTESIAN_POINT('',(31.25,-6.5,4.75));
#554 = VECTOR('',#555,1.);
#555 = DIRECTION('',(0.707106781187,-5.714682320829E-18,0.707106781187)
  );
#556 = CONICAL_SURFACE('',#557,3.75,0.785398163397);
#557 = AXIS2_PLACEMENT_3D('',#558,#559,#560);
#558 = CARTESIAN_POINT('',(27.5,-6.5,4.75));
#559 = DIRECTION('',(0.,0.,1.));
#560 = DIRECTION('',(1.,2.368475785867E-16,0.));
#561 = ADVANCED_FACE('',(#562),#587,.T.);
#562 = FACE_BOUND('',#563,.T.);
#563 = EDGE_LOOP('',(#564,#565,#573,#581));
#564 = ORIENTED_EDGE('',*,*,#152,.F.);
#565 = ORIENTED_EDGE('',*,*,#566,.T.);
#566 = EDGE_CURVE('',#145,#567,#569,.T.);
#567 = VERTEX_POINT('',#568);
#568 = CARTESIAN_POINT('',(-6.5,-8.1,0.8));
#569 = LINE('',#570,#571);
#570 = CARTESIAN_POINT('',(-6.5,-8.1,2.6));
#571 = VECTOR('',#572,1.);
#572 = DIRECTION('',(-2.22044604925E-16,-0.,-1.));
#573 = ORIENTED_EDGE('',*,*,#574,.T.);
#574 = EDGE_CURVE('',#567,#575,#577,.T.);
#575 = VERTEX_POINT('',#576);
#576 = CARTESIAN_POINT('',(6.5,-8.1,0.8));
#577 = LINE('',#578,#579);
#578 = CARTESIAN_POINT('',(-6.5,-8.1,0.8));
#579 = VECTOR('',#580,1.);
#580 = DIRECTION('',(1.,0.,-2.22044604925E-16));
#581 = ORIENTED_EDGE('',*,*,#582,.F.);
#582 = EDGE_CURVE('',#153,#575,#583,.T.);
#583 = LINE('',#584,#585);
#584 = CARTESIAN_POINT('',(6.5,-8.1,2.6));
#585 = VECTOR('',#586,1.);
#586 = DIRECTION('',(-2.22044604925E-16,-0.,-1.));
#587 = PLANE('',#588);
#588 = AXIS2_PLACEMENT_3D('',#589,#590,#591);
#589 = CARTESIAN_POINT('',(-6.5,-8.1,2.6));
#590 = DIRECTION('',(0.,-1.,0.));
#591 = DIRECTION('',(-2.22044604925E-16,-0.,-1.));
#592 = ADVANCED_FACE('',(#593),#612,.T.);
#593 = FACE_BOUND('',#594,.T.);
#594 = EDGE_LOOP('',(#595,#596,#597,#606));
#595 = ORIENTED_EDGE('',*,*,#174,.F.);
#596 = ORIENTED_EDGE('',*,*,#160,.T.);
#597 = ORIENTED_EDGE('',*,*,#598,.T.);
#598 = EDGE_CURVE('',#153,#599,#601,.T.);
#599 = VERTEX_POINT('',#600);
#600 = CARTESIAN_POINT('',(8.1,-6.5,2.6));
#601 = CIRCLE('',#602,1.6);
#602 = AXIS2_PLACEMENT_3D('',#603,#604,#605);
#603 = CARTESIAN_POINT('',(6.5,-6.5,2.6));
#604 = DIRECTION('',(0.,-0.,1.));
#605 = DIRECTION('',(1.,2.368475785867E-16,0.));
#606 = ORIENTED_EDGE('',*,*,#607,.T.);
#607 = EDGE_CURVE('',#599,#175,#608,.T.);
#608 = LINE('',#609,#610);
#609 = CARTESIAN_POINT('',(10.25,-6.5,4.75));
#610 = VECTOR('',#611,1.);
#611 = DIRECTION('',(0.707106781187,-5.714682320829E-18,0.707106781187)
  );
#612 = CONICAL_SURFACE('',#613,3.75,0.785398163397);
#613 = AXIS2_PLACEMENT_3D('',#614,#615,#616);
#614 = CARTESIAN_POINT('',(6.5,-6.5,4.75));
#615 = DIRECTION('',(0.,0.,1.));
#616 = DIRECTION('',(1.,2.368475785867E-16,0.));
#617 = ADVANCED_FACE('',(#618),#636,.T.);
#618 = FACE_BOUND('',#619,.T.);
#619 = EDGE_LOOP('',(#620,#621,#622,#630));
#620 = ORIENTED_EDGE('',*,*,#227,.F.);
#621 = ORIENTED_EDGE('',*,*,#607,.F.);
#622 = ORIENTED_EDGE('',*,*,#623,.T.);
#623 = EDGE_CURVE('',#599,#624,#626,.T.);
#624 = VERTEX_POINT('',#625);
#625 = CARTESIAN_POINT('',(8.1,6.5,2.6));
#626 = LINE('',#627,#628);
#627 = CARTESIAN_POINT('',(8.1,-6.5,2.6));
#628 = VECTOR('',#629,1.);
#629 = DIRECTION('',(-1.110223024625E-16,1.,-1.110223024625E-16));
#630 = ORIENTED_EDGE('',*,*,#631,.F.);
#631 = EDGE_CURVE('',#219,#624,#632,.T.);
#632 = LINE('',#633,#634);
#633 = CARTESIAN_POINT('',(10.25,6.5,4.75));
#634 = VECTOR('',#635,1.);
#635 = DIRECTION('',(-0.707106781187,-1.570092458684E-16,-0.707106781187
    ));
#636 = PLANE('',#637);
#637 = AXIS2_PLACEMENT_3D('',#638,#639,#640);
#638 = CARTESIAN_POINT('',(10.25,-6.5,4.75));
#639 = DIRECTION('',(0.707106781187,0.,-0.707106781187));
#640 = DIRECTION('',(-0.707106781187,-1.570092458684E-16,-0.707106781187
    ));
#641 = ADVANCED_FACE('',(#642),#661,.T.);
#642 = FACE_BOUND('',#643,.T.);
#643 = EDGE_LOOP('',(#644,#645,#646,#655));
#644 = ORIENTED_EDGE('',*,*,#218,.F.);
#645 = ORIENTED_EDGE('',*,*,#631,.T.);
#646 = ORIENTED_EDGE('',*,*,#647,.T.);
#647 = EDGE_CURVE('',#624,#648,#650,.T.);
#648 = VERTEX_POINT('',#649);
#649 = CARTESIAN_POINT('',(6.5,8.1,2.6));
#650 = CIRCLE('',#651,1.6);
#651 = AXIS2_PLACEMENT_3D('',#652,#653,#654);
#652 = CARTESIAN_POINT('',(6.5,6.5,2.6));
#653 = DIRECTION('',(0.,-0.,1.));
#654 = DIRECTION('',(1.,2.368475785867E-16,0.));
#655 = ORIENTED_EDGE('',*,*,#656,.T.);
#656 = EDGE_CURVE('',#648,#211,#657,.T.);
#657 = LINE('',#658,#659);
#658 = CARTESIAN_POINT('',(6.5,10.25,4.75));
#659 = VECTOR('',#660,1.);
#660 = DIRECTION('',(-1.241787261145E-16,0.707106781187,0.707106781187)
  );
#661 = CONICAL_SURFACE('',#662,3.75,0.785398163397);
#662 = AXIS2_PLACEMENT_3D('',#663,#664,#665);
#663 = CARTESIAN_POINT('',(6.5,6.5,4.75));
#664 = DIRECTION('',(0.,0.,1.));
#665 = DIRECTION('',(1.,2.368475785867E-16,0.));
#666 = ADVANCED_FACE('',(#667),#699,.F.);
#667 = FACE_BOUND('',#668,.F.);
#668 = EDGE_LOOP('',(#669,#677,#678,#686,#692,#693));
#669 = ORIENTED_EDGE('',*,*,#670,.T.);
#670 = EDGE_CURVE('',#671,#283,#673,.T.);
#671 = VERTEX_POINT('',#672);
#672 = CARTESIAN_POINT('',(27.5,10.25,4.75));
#673 = LINE('',#674,#675);
#674 = CARTESIAN_POINT('',(27.500000000047,10.249999999911,4.75));
#675 = VECTOR('',#676,1.);
#676 = DIRECTION('',(0.,0.,1.));
#677 = ORIENTED_EDGE('',*,*,#291,.T.);
#678 = ORIENTED_EDGE('',*,*,#679,.F.);
#679 = EDGE_CURVE('',#680,#292,#682,.T.);
#680 = VERTEX_POINT('',#681);
#681 = CARTESIAN_POINT('',(-6.5,10.25,4.75));
#682 = LINE('',#683,#684);
#683 = CARTESIAN_POINT('',(-6.500000000047,10.249999999911,4.75));
#684 = VECTOR('',#685,1.);
#685 = DIRECTION('',(0.,0.,1.));
#686 = ORIENTED_EDGE('',*,*,#687,.F.);
#687 = EDGE_CURVE('',#211,#680,#688,.T.);
#688 = LINE('',#689,#690);
#689 = CARTESIAN_POINT('',(27.500000000047,10.249999999911,4.75));
#690 = VECTOR('',#691,1.);
#691 = DIRECTION('',(-1.,0.,0.));
#692 = ORIENTED_EDGE('',*,*,#210,.F.);
#693 = ORIENTED_EDGE('',*,*,#694,.F.);
#694 = EDGE_CURVE('',#671,#202,#695,.T.);
#695 = LINE('',#696,#697);
#696 = CARTESIAN_POINT('',(27.500000000047,10.249999999911,4.75));
#697 = VECTOR('',#698,1.);
#698 = DIRECTION('',(-1.,0.,0.));
#699 = PLANE('',#700);
#700 = AXIS2_PLACEMENT_3D('',#701,#702,#703);
#701 = CARTESIAN_POINT('',(27.500000000047,10.249999999911,4.75));
#702 = DIRECTION('',(0.,-1.,0.));
#703 = DIRECTION('',(-1.,0.,0.));
#704 = ADVANCED_FACE('',(#705),#731,.T.);
#705 = FACE_BOUND('',#706,.T.);
#706 = EDGE_LOOP('',(#707,#708,#716,#725));
#707 = ORIENTED_EDGE('',*,*,#201,.F.);
#708 = ORIENTED_EDGE('',*,*,#709,.T.);
#709 = EDGE_CURVE('',#202,#710,#712,.T.);
#710 = VERTEX_POINT('',#711);
#711 = CARTESIAN_POINT('',(14.5,8.1,2.6));
#712 = LINE('',#713,#714);
#713 = CARTESIAN_POINT('',(14.5,10.25,4.75));
#714 = VECTOR('',#715,1.);
#715 = DIRECTION('',(4.300076493795E-17,-0.707106781187,-0.707106781187)
  );
#716 = ORIENTED_EDGE('',*,*,#717,.T.);
#717 = EDGE_CURVE('',#710,#718,#720,.T.);
#718 = VERTEX_POINT('',#719);
#719 = CARTESIAN_POINT('',(12.9,6.5,2.6));
#720 = CIRCLE('',#721,1.6);
#721 = AXIS2_PLACEMENT_3D('',#722,#723,#724);
#722 = CARTESIAN_POINT('',(14.5,6.5,2.6));
#723 = DIRECTION('',(0.,-0.,1.));
#724 = DIRECTION('',(1.,2.368475785867E-16,0.));
#725 = ORIENTED_EDGE('',*,*,#726,.T.);
#726 = EDGE_CURVE('',#718,#194,#727,.T.);
#727 = LINE('',#728,#729);
#728 = CARTESIAN_POINT('',(10.75,6.5,4.75));
#729 = VECTOR('',#730,1.);
#730 = DIRECTION('',(-0.707106781187,-3.948994150395E-16,0.707106781187)
  );
#731 = CONICAL_SURFACE('',#732,3.75,0.785398163397);
#732 = AXIS2_PLACEMENT_3D('',#733,#734,#735);
#733 = CARTESIAN_POINT('',(14.5,6.5,4.75));
#734 = DIRECTION('',(0.,0.,1.));
#735 = DIRECTION('',(1.,2.368475785867E-16,0.));
#736 = ADVANCED_FACE('',(#737),#755,.T.);
#737 = FACE_BOUND('',#738,.T.);
#738 = EDGE_LOOP('',(#739,#740,#741,#749));
#739 = ORIENTED_EDGE('',*,*,#193,.F.);
#740 = ORIENTED_EDGE('',*,*,#726,.F.);
#741 = ORIENTED_EDGE('',*,*,#742,.T.);
#742 = EDGE_CURVE('',#718,#743,#745,.T.);
#743 = VERTEX_POINT('',#744);
#744 = CARTESIAN_POINT('',(12.9,-6.5,2.6));
#745 = LINE('',#746,#747);
#746 = CARTESIAN_POINT('',(12.9,6.5,2.6));
#747 = VECTOR('',#748,1.);
#748 = DIRECTION('',(1.108122649677E-16,-1.,-1.108122649677E-16));
#749 = ORIENTED_EDGE('',*,*,#750,.F.);
#750 = EDGE_CURVE('',#185,#743,#751,.T.);
#751 = LINE('',#752,#753);
#752 = CARTESIAN_POINT('',(10.75,-6.5,4.75));
#753 = VECTOR('',#754,1.);
#754 = DIRECTION('',(0.707106781187,1.567122079946E-16,-0.707106781187)
  );
#755 = PLANE('',#756);
#756 = AXIS2_PLACEMENT_3D('',#757,#758,#759);
#757 = CARTESIAN_POINT('',(10.75,6.5,4.75));
#758 = DIRECTION('',(-0.707106781187,-0.,-0.707106781187));
#759 = DIRECTION('',(0.707106781187,1.567122079946E-16,-0.707106781187)
  );
#760 = ADVANCED_FACE('',(#761),#773,.T.);
#761 = FACE_BOUND('',#762,.T.);
#762 = EDGE_LOOP('',(#763,#764,#765,#772));
#763 = ORIENTED_EDGE('',*,*,#184,.F.);
#764 = ORIENTED_EDGE('',*,*,#750,.T.);
#765 = ORIENTED_EDGE('',*,*,#766,.T.);
#766 = EDGE_CURVE('',#743,#243,#767,.T.);
#767 = CIRCLE('',#768,1.6);
#768 = AXIS2_PLACEMENT_3D('',#769,#770,#771);
#769 = CARTESIAN_POINT('',(14.5,-6.5,2.6));
#770 = DIRECTION('',(0.,-0.,1.));
#771 = DIRECTION('',(1.,2.368475785867E-16,0.));
#772 = ORIENTED_EDGE('',*,*,#242,.F.);
#773 = CONICAL_SURFACE('',#774,3.75,0.785398163397);
#774 = AXIS2_PLACEMENT_3D('',#775,#776,#777);
#775 = CARTESIAN_POINT('',(14.5,-6.5,4.75));
#776 = DIRECTION('',(0.,0.,1.));
#777 = DIRECTION('',(1.,2.368475785867E-16,0.));
#778 = ADVANCED_FACE('',(#779),#804,.T.);
#779 = FACE_BOUND('',#780,.T.);
#780 = EDGE_LOOP('',(#781,#782,#790,#798));
#781 = ORIENTED_EDGE('',*,*,#250,.F.);
#782 = ORIENTED_EDGE('',*,*,#783,.T.);
#783 = EDGE_CURVE('',#243,#784,#786,.T.);
#784 = VERTEX_POINT('',#785);
#785 = CARTESIAN_POINT('',(14.5,-8.1,0.8));
#786 = LINE('',#787,#788);
#787 = CARTESIAN_POINT('',(14.5,-8.1,2.6));
#788 = VECTOR('',#789,1.);
#789 = DIRECTION('',(-2.22044604925E-16,-0.,-1.));
#790 = ORIENTED_EDGE('',*,*,#791,.T.);
#791 = EDGE_CURVE('',#784,#792,#794,.T.);
#792 = VERTEX_POINT('',#793);
#793 = CARTESIAN_POINT('',(27.5,-8.1,0.8));
#794 = LINE('',#795,#796);
#795 = CARTESIAN_POINT('',(14.5,-8.1,0.8));
#796 = VECTOR('',#797,1.);
#797 = DIRECTION('',(1.,0.,-2.22044604925E-16));
#798 = ORIENTED_EDGE('',*,*,#799,.F.);
#799 = EDGE_CURVE('',#251,#792,#800,.T.);
#800 = LINE('',#801,#802);
#801 = CARTESIAN_POINT('',(27.5,-8.1,2.6));
#802 = VECTOR('',#803,1.);
#803 = DIRECTION('',(-2.22044604925E-16,-0.,-1.));
#804 = PLANE('',#805);
#805 = AXIS2_PLACEMENT_3D('',#806,#807,#808);
#806 = CARTESIAN_POINT('',(14.5,-8.1,2.6));
#807 = DIRECTION('',(0.,-1.,0.));
#808 = DIRECTION('',(-2.22044604925E-16,-0.,-1.));
#809 = ADVANCED_FACE('',(#810),#822,.T.);
#810 = FACE_BOUND('',#811,.F.);
#811 = EDGE_LOOP('',(#812,#813,#814,#815));
#812 = ORIENTED_EDGE('',*,*,#679,.T.);
#813 = ORIENTED_EDGE('',*,*,#299,.T.);
#814 = ORIENTED_EDGE('',*,*,#467,.F.);
#815 = ORIENTED_EDGE('',*,*,#816,.F.);
#816 = EDGE_CURVE('',#680,#468,#817,.T.);
#817 = CIRCLE('',#818,3.75);
#818 = AXIS2_PLACEMENT_3D('',#819,#820,#821);
#819 = CARTESIAN_POINT('',(-6.5,6.499999999911,4.75));
#820 = DIRECTION('',(0.,0.,1.));
#821 = DIRECTION('',(1.,0.,0.));
#822 = CYLINDRICAL_SURFACE('',#823,3.75);
#823 = AXIS2_PLACEMENT_3D('',#824,#825,#826);
#824 = CARTESIAN_POINT('',(-6.5,6.499999999911,4.75));
#825 = DIRECTION('',(-0.,-0.,-1.));
#826 = DIRECTION('',(1.,0.,0.));
#827 = ADVANCED_FACE('',(#828),#840,.T.);
#828 = FACE_BOUND('',#829,.F.);
#829 = EDGE_LOOP('',(#830,#831,#832,#833));
#830 = ORIENTED_EDGE('',*,*,#518,.T.);
#831 = ORIENTED_EDGE('',*,*,#282,.T.);
#832 = ORIENTED_EDGE('',*,*,#670,.F.);
#833 = ORIENTED_EDGE('',*,*,#834,.F.);
#834 = EDGE_CURVE('',#519,#671,#835,.T.);
#835 = CIRCLE('',#836,3.75);
#836 = AXIS2_PLACEMENT_3D('',#837,#838,#839);
#837 = CARTESIAN_POINT('',(27.5,6.499999999911,4.75));
#838 = DIRECTION('',(0.,0.,1.));
#839 = DIRECTION('',(1.,0.,0.));
#840 = CYLINDRICAL_SURFACE('',#841,3.75);
#841 = AXIS2_PLACEMENT_3D('',#842,#843,#844);
#842 = CARTESIAN_POINT('',(27.5,6.499999999911,4.75));
#843 = DIRECTION('',(-0.,-0.,-1.));
#844 = DIRECTION('',(1.,0.,0.));
#845 = ADVANCED_FACE('',(#846),#872,.F.);
#846 = FACE_BOUND('',#847,.F.);
#847 = EDGE_LOOP('',(#848,#856,#865,#871));
#848 = ORIENTED_EDGE('',*,*,#849,.T.);
#849 = EDGE_CURVE('',#318,#850,#852,.T.);
#850 = VERTEX_POINT('',#851);
#851 = CARTESIAN_POINT('',(2.875,-5.3625,6.777777777778));
#852 = LINE('',#853,#854);
#853 = CARTESIAN_POINT('',(2.875,-5.3625,21.));
#854 = VECTOR('',#855,1.);
#855 = DIRECTION('',(-0.,-0.,-1.));
#856 = ORIENTED_EDGE('',*,*,#857,.T.);
#857 = EDGE_CURVE('',#850,#858,#860,.T.);
#858 = VERTEX_POINT('',#859);
#859 = CARTESIAN_POINT('',(2.875,-8.5125,6.777777777778));
#860 = CIRCLE('',#861,1.575);
#861 = AXIS2_PLACEMENT_3D('',#862,#863,#864);
#862 = CARTESIAN_POINT('',(2.875,-6.9375,6.777777777778));
#863 = DIRECTION('',(0.,0.,1.));
#864 = DIRECTION('',(1.,0.,0.));
#865 = ORIENTED_EDGE('',*,*,#866,.F.);
#866 = EDGE_CURVE('',#320,#858,#867,.T.);
#867 = LINE('',#868,#869);
#868 = CARTESIAN_POINT('',(2.875,-8.5125,21.));
#869 = VECTOR('',#870,1.);
#870 = DIRECTION('',(-0.,-0.,-1.));
#871 = ORIENTED_EDGE('',*,*,#317,.F.);
#872 = CYLINDRICAL_SURFACE('',#873,1.575);
#873 = AXIS2_PLACEMENT_3D('',#874,#875,#876);
#874 = CARTESIAN_POINT('',(2.875,-6.9375,21.));
#875 = DIRECTION('',(0.,0.,1.));
#876 = DIRECTION('',(1.,0.,0.));
#877 = ADVANCED_FACE('',(#878),#896,.T.);
#878 = FACE_BOUND('',#879,.T.);
#879 = EDGE_LOOP('',(#880,#881,#889,#895));
#880 = ORIENTED_EDGE('',*,*,#849,.T.);
#881 = ORIENTED_EDGE('',*,*,#882,.T.);
#882 = EDGE_CURVE('',#850,#883,#885,.T.);
#883 = VERTEX_POINT('',#884);
#884 = CARTESIAN_POINT('',(26.875,-5.3625,6.777777777778));
#885 = LINE('',#886,#887);
#886 = CARTESIAN_POINT('',(2.875,-5.3625,6.777777777778));
#887 = VECTOR('',#888,1.);
#888 = DIRECTION('',(1.,0.,0.));
#889 = ORIENTED_EDGE('',*,*,#890,.F.);
#890 = EDGE_CURVE('',#329,#883,#891,.T.);
#891 = LINE('',#892,#893);
#892 = CARTESIAN_POINT('',(26.875,-5.3625,21.));
#893 = VECTOR('',#894,1.);
#894 = DIRECTION('',(-0.,-0.,-1.));
#895 = ORIENTED_EDGE('',*,*,#328,.F.);
#896 = PLANE('',#897);
#897 = AXIS2_PLACEMENT_3D('',#898,#899,#900);
#898 = CARTESIAN_POINT('',(2.875,-5.3625,21.));
#899 = DIRECTION('',(0.,-1.,0.));
#900 = DIRECTION('',(1.,0.,0.));
#901 = ADVANCED_FACE('',(#902),#920,.F.);
#902 = FACE_BOUND('',#903,.F.);
#903 = EDGE_LOOP('',(#904,#905,#913,#919));
#904 = ORIENTED_EDGE('',*,*,#866,.T.);
#905 = ORIENTED_EDGE('',*,*,#906,.T.);
#906 = EDGE_CURVE('',#858,#907,#909,.T.);
#907 = VERTEX_POINT('',#908);
#908 = CARTESIAN_POINT('',(26.875,-8.5125,6.777777777778));
#909 = LINE('',#910,#911);
#910 = CARTESIAN_POINT('',(2.875,-8.5125,6.777777777778));
#911 = VECTOR('',#912,1.);
#912 = DIRECTION('',(1.,7.401486830834E-17,0.));
#913 = ORIENTED_EDGE('',*,*,#914,.F.);
#914 = EDGE_CURVE('',#337,#907,#915,.T.);
#915 = LINE('',#916,#917);
#916 = CARTESIAN_POINT('',(26.875,-8.5125,21.));
#917 = VECTOR('',#918,1.);
#918 = DIRECTION('',(-0.,-0.,-1.));
#919 = ORIENTED_EDGE('',*,*,#345,.F.);
#920 = PLANE('',#921);
#921 = AXIS2_PLACEMENT_3D('',#922,#923,#924);
#922 = CARTESIAN_POINT('',(2.875,-8.5125,21.));
#923 = DIRECTION('',(7.401486830834E-17,-1.,0.));
#924 = DIRECTION('',(1.,7.401486830834E-17,0.));
#925 = ADVANCED_FACE('',(#926),#938,.F.);
#926 = FACE_BOUND('',#927,.F.);
#927 = EDGE_LOOP('',(#928,#929,#936,#937));
#928 = ORIENTED_EDGE('',*,*,#914,.T.);
#929 = ORIENTED_EDGE('',*,*,#930,.T.);
#930 = EDGE_CURVE('',#907,#883,#931,.T.);
#931 = CIRCLE('',#932,1.575);
#932 = AXIS2_PLACEMENT_3D('',#933,#934,#935);
#933 = CARTESIAN_POINT('',(26.875,-6.9375,6.777777777778));
#934 = DIRECTION('',(0.,0.,1.));
#935 = DIRECTION('',(1.,0.,0.));
#936 = ORIENTED_EDGE('',*,*,#890,.F.);
#937 = ORIENTED_EDGE('',*,*,#336,.F.);
#938 = CYLINDRICAL_SURFACE('',#939,1.575);
#939 = AXIS2_PLACEMENT_3D('',#940,#941,#942);
#940 = CARTESIAN_POINT('',(26.875,-6.9375,21.));
#941 = DIRECTION('',(0.,0.,1.));
#942 = DIRECTION('',(1.,0.,0.));
#943 = ADVANCED_FACE('',(#944),#970,.F.);
#944 = FACE_BOUND('',#945,.F.);
#945 = EDGE_LOOP('',(#946,#954,#963,#969));
#946 = ORIENTED_EDGE('',*,*,#947,.T.);
#947 = EDGE_CURVE('',#354,#948,#950,.T.);
#948 = VERTEX_POINT('',#949);
#949 = CARTESIAN_POINT('',(2.875,3.8875,6.777777777778));
#950 = LINE('',#951,#952);
#951 = CARTESIAN_POINT('',(2.875,3.8875,21.));
#952 = VECTOR('',#953,1.);
#953 = DIRECTION('',(-0.,-0.,-1.));
#954 = ORIENTED_EDGE('',*,*,#955,.T.);
#955 = EDGE_CURVE('',#948,#956,#958,.T.);
#956 = VERTEX_POINT('',#957);
#957 = CARTESIAN_POINT('',(2.875,0.7375,6.777777777778));
#958 = CIRCLE('',#959,1.575);
#959 = AXIS2_PLACEMENT_3D('',#960,#961,#962);
#960 = CARTESIAN_POINT('',(2.875,2.3125,6.777777777778));
#961 = DIRECTION('',(0.,0.,1.));
#962 = DIRECTION('',(1.,0.,0.));
#963 = ORIENTED_EDGE('',*,*,#964,.F.);
#964 = EDGE_CURVE('',#356,#956,#965,.T.);
#965 = LINE('',#966,#967);
#966 = CARTESIAN_POINT('',(2.875,0.7375,21.));
#967 = VECTOR('',#968,1.);
#968 = DIRECTION('',(-0.,-0.,-1.));
#969 = ORIENTED_EDGE('',*,*,#353,.F.);
#970 = CYLINDRICAL_SURFACE('',#971,1.575);
#971 = AXIS2_PLACEMENT_3D('',#972,#973,#974);
#972 = CARTESIAN_POINT('',(2.875,2.3125,21.));
#973 = DIRECTION('',(0.,0.,1.));
#974 = DIRECTION('',(1.,0.,0.));
#975 = ADVANCED_FACE('',(#976),#994,.F.);
#976 = FACE_BOUND('',#977,.F.);
#977 = EDGE_LOOP('',(#978,#979,#987,#993));
#978 = ORIENTED_EDGE('',*,*,#964,.T.);
#979 = ORIENTED_EDGE('',*,*,#980,.T.);
#980 = EDGE_CURVE('',#956,#981,#983,.T.);
#981 = VERTEX_POINT('',#982);
#982 = CARTESIAN_POINT('',(26.875,0.7375,6.777777777778));
#983 = LINE('',#984,#985);
#984 = CARTESIAN_POINT('',(2.875,0.7375,6.777777777778));
#985 = VECTOR('',#986,1.);
#986 = DIRECTION('',(1.,7.401486830834E-17,0.));
#987 = ORIENTED_EDGE('',*,*,#988,.F.);
#988 = EDGE_CURVE('',#373,#981,#989,.T.);
#989 = LINE('',#990,#991);
#990 = CARTESIAN_POINT('',(26.875,0.7375,21.));
#991 = VECTOR('',#992,1.);
#992 = DIRECTION('',(-0.,-0.,-1.));
#993 = ORIENTED_EDGE('',*,*,#381,.F.);
#994 = PLANE('',#995);
#995 = AXIS2_PLACEMENT_3D('',#996,#997,#998);
#996 = CARTESIAN_POINT('',(2.875,0.7375,21.));
#997 = DIRECTION('',(7.401486830834E-17,-1.,0.));
#998 = DIRECTION('',(1.,7.401486830834E-17,0.));
#999 = ADVANCED_FACE('',(#1000),#1019,.F.);
#1000 = FACE_BOUND('',#1001,.F.);
#1001 = EDGE_LOOP('',(#1002,#1003,#1012,#1018));
#1002 = ORIENTED_EDGE('',*,*,#988,.T.);
#1003 = ORIENTED_EDGE('',*,*,#1004,.T.);
#1004 = EDGE_CURVE('',#981,#1005,#1007,.T.);
#1005 = VERTEX_POINT('',#1006);
#1006 = CARTESIAN_POINT('',(26.875,3.8875,6.777777777778));
#1007 = CIRCLE('',#1008,1.575);
#1008 = AXIS2_PLACEMENT_3D('',#1009,#1010,#1011);
#1009 = CARTESIAN_POINT('',(26.875,2.3125,6.777777777778));
#1010 = DIRECTION('',(0.,0.,1.));
#1011 = DIRECTION('',(1.,0.,0.));
#1012 = ORIENTED_EDGE('',*,*,#1013,.F.);
#1013 = EDGE_CURVE('',#365,#1005,#1014,.T.);
#1014 = LINE('',#1015,#1016);
#1015 = CARTESIAN_POINT('',(26.875,3.8875,21.));
#1016 = VECTOR('',#1017,1.);
#1017 = DIRECTION('',(-0.,-0.,-1.));
#1018 = ORIENTED_EDGE('',*,*,#372,.F.);
#1019 = CYLINDRICAL_SURFACE('',#1020,1.575);
#1020 = AXIS2_PLACEMENT_3D('',#1021,#1022,#1023);
#1021 = CARTESIAN_POINT('',(26.875,2.3125,21.));
#1022 = DIRECTION('',(0.,0.,1.));
#1023 = DIRECTION('',(1.,0.,0.));
#1024 = ADVANCED_FACE('',(#1025),#1036,.T.);
#1025 = FACE_BOUND('',#1026,.T.);
#1026 = EDGE_LOOP('',(#1027,#1028,#1034,#1035));
#1027 = ORIENTED_EDGE('',*,*,#947,.T.);
#1028 = ORIENTED_EDGE('',*,*,#1029,.T.);
#1029 = EDGE_CURVE('',#948,#1005,#1030,.T.);
#1030 = LINE('',#1031,#1032);
#1031 = CARTESIAN_POINT('',(2.875,3.8875,6.777777777778));
#1032 = VECTOR('',#1033,1.);
#1033 = DIRECTION('',(1.,0.,0.));
#1034 = ORIENTED_EDGE('',*,*,#1013,.F.);
#1035 = ORIENTED_EDGE('',*,*,#364,.F.);
#1036 = PLANE('',#1037);
#1037 = AXIS2_PLACEMENT_3D('',#1038,#1039,#1040);
#1038 = CARTESIAN_POINT('',(2.875,3.8875,21.));
#1039 = DIRECTION('',(0.,-1.,0.));
#1040 = DIRECTION('',(1.,0.,0.));
#1041 = ADVANCED_FACE('',(#1042),#1068,.F.);
#1042 = FACE_BOUND('',#1043,.F.);
#1043 = EDGE_LOOP('',(#1044,#1052,#1061,#1067));
#1044 = ORIENTED_EDGE('',*,*,#1045,.T.);
#1045 = EDGE_CURVE('',#390,#1046,#1048,.T.);
#1046 = VERTEX_POINT('',#1047);
#1047 = CARTESIAN_POINT('',(-5.875,-0.7375,6.777777777778));
#1048 = LINE('',#1049,#1050);
#1049 = CARTESIAN_POINT('',(-5.875,-0.7375,21.));
#1050 = VECTOR('',#1051,1.);
#1051 = DIRECTION('',(-0.,-0.,-1.));
#1052 = ORIENTED_EDGE('',*,*,#1053,.T.);
#1053 = EDGE_CURVE('',#1046,#1054,#1056,.T.);
#1054 = VERTEX_POINT('',#1055);
#1055 = CARTESIAN_POINT('',(-5.875,-3.8875,6.777777777778));
#1056 = CIRCLE('',#1057,1.575);
#1057 = AXIS2_PLACEMENT_3D('',#1058,#1059,#1060);
#1058 = CARTESIAN_POINT('',(-5.875,-2.3125,6.777777777778));
#1059 = DIRECTION('',(0.,0.,1.));
#1060 = DIRECTION('',(1.,0.,0.));
#1061 = ORIENTED_EDGE('',*,*,#1062,.F.);
#1062 = EDGE_CURVE('',#392,#1054,#1063,.T.);
#1063 = LINE('',#1064,#1065);
#1064 = CARTESIAN_POINT('',(-5.875,-3.8875,21.));
#1065 = VECTOR('',#1066,1.);
#1066 = DIRECTION('',(-0.,-0.,-1.));
#1067 = ORIENTED_EDGE('',*,*,#389,.F.);
#1068 = CYLINDRICAL_SURFACE('',#1069,1.575);
#1069 = AXIS2_PLACEMENT_3D('',#1070,#1071,#1072);
#1070 = CARTESIAN_POINT('',(-5.875,-2.3125,21.));
#1071 = DIRECTION('',(0.,0.,1.));
#1072 = DIRECTION('',(1.,0.,0.));
#1073 = ADVANCED_FACE('',(#1074),#1092,.T.);
#1074 = FACE_BOUND('',#1075,.T.);
#1075 = EDGE_LOOP('',(#1076,#1077,#1085,#1091));
#1076 = ORIENTED_EDGE('',*,*,#1045,.T.);
#1077 = ORIENTED_EDGE('',*,*,#1078,.T.);
#1078 = EDGE_CURVE('',#1046,#1079,#1081,.T.);
#1079 = VERTEX_POINT('',#1080);
#1080 = CARTESIAN_POINT('',(18.125,-0.7375,6.777777777778));
#1081 = LINE('',#1082,#1083);
#1082 = CARTESIAN_POINT('',(-5.875,-0.7375,6.777777777778));
#1083 = VECTOR('',#1084,1.);
#1084 = DIRECTION('',(1.,0.,0.));
#1085 = ORIENTED_EDGE('',*,*,#1086,.F.);
#1086 = EDGE_CURVE('',#401,#1079,#1087,.T.);
#1087 = LINE('',#1088,#1089);
#1088 = CARTESIAN_POINT('',(18.125,-0.7375,21.));
#1089 = VECTOR('',#1090,1.);
#1090 = DIRECTION('',(-0.,-0.,-1.));
#1091 = ORIENTED_EDGE('',*,*,#400,.F.);
#1092 = PLANE('',#1093);
#1093 = AXIS2_PLACEMENT_3D('',#1094,#1095,#1096);
#1094 = CARTESIAN_POINT('',(-5.875,-0.7375,21.));
#1095 = DIRECTION('',(0.,-1.,0.));
#1096 = DIRECTION('',(1.,0.,0.));
#1097 = ADVANCED_FACE('',(#1098),#1116,.F.);
#1098 = FACE_BOUND('',#1099,.F.);
#1099 = EDGE_LOOP('',(#1100,#1101,#1109,#1115));
#1100 = ORIENTED_EDGE('',*,*,#1062,.T.);
#1101 = ORIENTED_EDGE('',*,*,#1102,.T.);
#1102 = EDGE_CURVE('',#1054,#1103,#1105,.T.);
#1103 = VERTEX_POINT('',#1104);
#1104 = CARTESIAN_POINT('',(18.125,-3.8875,6.777777777778));
#1105 = LINE('',#1106,#1107);
#1106 = CARTESIAN_POINT('',(-5.875,-3.8875,6.777777777778));
#1107 = VECTOR('',#1108,1.);
#1108 = DIRECTION('',(1.,0.,0.));
#1109 = ORIENTED_EDGE('',*,*,#1110,.F.);
#1110 = EDGE_CURVE('',#409,#1103,#1111,.T.);
#1111 = LINE('',#1112,#1113);
#1112 = CARTESIAN_POINT('',(18.125,-3.8875,21.));
#1113 = VECTOR('',#1114,1.);
#1114 = DIRECTION('',(-0.,-0.,-1.));
#1115 = ORIENTED_EDGE('',*,*,#417,.F.);
#1116 = PLANE('',#1117);
#1117 = AXIS2_PLACEMENT_3D('',#1118,#1119,#1120);
#1118 = CARTESIAN_POINT('',(-5.875,-3.8875,21.));
#1119 = DIRECTION('',(0.,-1.,0.));
#1120 = DIRECTION('',(1.,0.,0.));
#1121 = ADVANCED_FACE('',(#1122),#1134,.F.);
#1122 = FACE_BOUND('',#1123,.F.);
#1123 = EDGE_LOOP('',(#1124,#1125,#1132,#1133));
#1124 = ORIENTED_EDGE('',*,*,#1110,.T.);
#1125 = ORIENTED_EDGE('',*,*,#1126,.T.);
#1126 = EDGE_CURVE('',#1103,#1079,#1127,.T.);
#1127 = CIRCLE('',#1128,1.575);
#1128 = AXIS2_PLACEMENT_3D('',#1129,#1130,#1131);
#1129 = CARTESIAN_POINT('',(18.125,-2.3125,6.777777777778));
#1130 = DIRECTION('',(0.,0.,1.));
#1131 = DIRECTION('',(1.,0.,0.));
#1132 = ORIENTED_EDGE('',*,*,#1086,.F.);
#1133 = ORIENTED_EDGE('',*,*,#408,.F.);
#1134 = CYLINDRICAL_SURFACE('',#1135,1.575);
#1135 = AXIS2_PLACEMENT_3D('',#1136,#1137,#1138);
#1136 = CARTESIAN_POINT('',(18.125,-2.3125,21.));
#1137 = DIRECTION('',(0.,0.,1.));
#1138 = DIRECTION('',(1.,0.,0.));
#1139 = ADVANCED_FACE('',(#1140),#1166,.F.);
#1140 = FACE_BOUND('',#1141,.F.);
#1141 = EDGE_LOOP('',(#1142,#1150,#1159,#1165));
#1142 = ORIENTED_EDGE('',*,*,#1143,.T.);
#1143 = EDGE_CURVE('',#426,#1144,#1146,.T.);
#1144 = VERTEX_POINT('',#1145);
#1145 = CARTESIAN_POINT('',(-5.875,8.5125,6.777777777778));
#1146 = LINE('',#1147,#1148);
#1147 = CARTESIAN_POINT('',(-5.875,8.5125,21.));
#1148 = VECTOR('',#1149,1.);
#1149 = DIRECTION('',(-0.,-0.,-1.));
#1150 = ORIENTED_EDGE('',*,*,#1151,.T.);
#1151 = EDGE_CURVE('',#1144,#1152,#1154,.T.);
#1152 = VERTEX_POINT('',#1153);
#1153 = CARTESIAN_POINT('',(-5.875,5.3625,6.777777777778));
#1154 = CIRCLE('',#1155,1.575);
#1155 = AXIS2_PLACEMENT_3D('',#1156,#1157,#1158);
#1156 = CARTESIAN_POINT('',(-5.875,6.9375,6.777777777778));
#1157 = DIRECTION('',(0.,0.,1.));
#1158 = DIRECTION('',(1.,0.,0.));
#1159 = ORIENTED_EDGE('',*,*,#1160,.F.);
#1160 = EDGE_CURVE('',#428,#1152,#1161,.T.);
#1161 = LINE('',#1162,#1163);
#1162 = CARTESIAN_POINT('',(-5.875,5.3625,21.));
#1163 = VECTOR('',#1164,1.);
#1164 = DIRECTION('',(-0.,-0.,-1.));
#1165 = ORIENTED_EDGE('',*,*,#425,.F.);
#1166 = CYLINDRICAL_SURFACE('',#1167,1.575);
#1167 = AXIS2_PLACEMENT_3D('',#1168,#1169,#1170);
#1168 = CARTESIAN_POINT('',(-5.875,6.9375,21.));
#1169 = DIRECTION('',(0.,0.,1.));
#1170 = DIRECTION('',(1.,0.,0.));
#1171 = ADVANCED_FACE('',(#1172),#1190,.F.);
#1172 = FACE_BOUND('',#1173,.F.);
#1173 = EDGE_LOOP('',(#1174,#1175,#1183,#1189));
#1174 = ORIENTED_EDGE('',*,*,#1160,.T.);
#1175 = ORIENTED_EDGE('',*,*,#1176,.T.);
#1176 = EDGE_CURVE('',#1152,#1177,#1179,.T.);
#1177 = VERTEX_POINT('',#1178);
#1178 = CARTESIAN_POINT('',(18.125,5.3625,6.777777777778));
#1179 = LINE('',#1180,#1181);
#1180 = CARTESIAN_POINT('',(-5.875,5.3625,6.777777777778));
#1181 = VECTOR('',#1182,1.);
#1182 = DIRECTION('',(1.,0.,0.));
#1183 = ORIENTED_EDGE('',*,*,#1184,.F.);
#1184 = EDGE_CURVE('',#445,#1177,#1185,.T.);
#1185 = LINE('',#1186,#1187);
#1186 = CARTESIAN_POINT('',(18.125,5.3625,21.));
#1187 = VECTOR('',#1188,1.);
#1188 = DIRECTION('',(-0.,-0.,-1.));
#1189 = ORIENTED_EDGE('',*,*,#453,.F.);
#1190 = PLANE('',#1191);
#1191 = AXIS2_PLACEMENT_3D('',#1192,#1193,#1194);
#1192 = CARTESIAN_POINT('',(-5.875,5.3625,21.));
#1193 = DIRECTION('',(0.,-1.,0.));
#1194 = DIRECTION('',(1.,0.,0.));
#1195 = ADVANCED_FACE('',(#1196),#1215,.F.);
#1196 = FACE_BOUND('',#1197,.F.);
#1197 = EDGE_LOOP('',(#1198,#1199,#1208,#1214));
#1198 = ORIENTED_EDGE('',*,*,#1184,.T.);
#1199 = ORIENTED_EDGE('',*,*,#1200,.T.);
#1200 = EDGE_CURVE('',#1177,#1201,#1203,.T.);
#1201 = VERTEX_POINT('',#1202);
#1202 = CARTESIAN_POINT('',(18.125,8.5125,6.777777777778));
#1203 = CIRCLE('',#1204,1.575);
#1204 = AXIS2_PLACEMENT_3D('',#1205,#1206,#1207);
#1205 = CARTESIAN_POINT('',(18.125,6.9375,6.777777777778));
#1206 = DIRECTION('',(0.,0.,1.));
#1207 = DIRECTION('',(1.,0.,0.));
#1208 = ORIENTED_EDGE('',*,*,#1209,.F.);
#1209 = EDGE_CURVE('',#437,#1201,#1210,.T.);
#1210 = LINE('',#1211,#1212);
#1211 = CARTESIAN_POINT('',(18.125,8.5125,21.));
#1212 = VECTOR('',#1213,1.);
#1213 = DIRECTION('',(-0.,-0.,-1.));
#1214 = ORIENTED_EDGE('',*,*,#444,.F.);
#1215 = CYLINDRICAL_SURFACE('',#1216,1.575);
#1216 = AXIS2_PLACEMENT_3D('',#1217,#1218,#1219);
#1217 = CARTESIAN_POINT('',(18.125,6.9375,21.));
#1218 = DIRECTION('',(0.,0.,1.));
#1219 = DIRECTION('',(1.,0.,0.));
#1220 = ADVANCED_FACE('',(#1221),#1232,.T.);
#1221 = FACE_BOUND('',#1222,.T.);
#1222 = EDGE_LOOP('',(#1223,#1224,#1230,#1231));
#1223 = ORIENTED_EDGE('',*,*,#1143,.T.);
#1224 = ORIENTED_EDGE('',*,*,#1225,.T.);
#1225 = EDGE_CURVE('',#1144,#1201,#1226,.T.);
#1226 = LINE('',#1227,#1228);
#1227 = CARTESIAN_POINT('',(-5.875,8.5125,6.777777777778));
#1228 = VECTOR('',#1229,1.);
#1229 = DIRECTION('',(1.,0.,0.));
#1230 = ORIENTED_EDGE('',*,*,#1209,.F.);
#1231 = ORIENTED_EDGE('',*,*,#436,.F.);
#1232 = PLANE('',#1233);
#1233 = AXIS2_PLACEMENT_3D('',#1234,#1235,#1236);
#1234 = CARTESIAN_POINT('',(-5.875,8.5125,21.));
#1235 = DIRECTION('',(0.,-1.,0.));
#1236 = DIRECTION('',(1.,0.,0.));
#1237 = ADVANCED_FACE('',(#1238),#1256,.T.);
#1238 = FACE_BOUND('',#1239,.T.);
#1239 = EDGE_LOOP('',(#1240,#1241,#1249,#1255));
#1240 = ORIENTED_EDGE('',*,*,#477,.F.);
#1241 = ORIENTED_EDGE('',*,*,#1242,.F.);
#1242 = EDGE_CURVE('',#1243,#468,#1245,.T.);
#1243 = VERTEX_POINT('',#1244);
#1244 = CARTESIAN_POINT('',(-8.1,6.5,2.6));
#1245 = LINE('',#1246,#1247);
#1246 = CARTESIAN_POINT('',(-10.25,6.5,4.75));
#1247 = VECTOR('',#1248,1.);
#1248 = DIRECTION('',(-0.707106781187,-3.948994150395E-16,0.707106781187
    ));
#1249 = ORIENTED_EDGE('',*,*,#1250,.T.);
#1250 = EDGE_CURVE('',#1243,#493,#1251,.T.);
#1251 = LINE('',#1252,#1253);
#1252 = CARTESIAN_POINT('',(-8.1,6.5,2.6));
#1253 = VECTOR('',#1254,1.);
#1254 = DIRECTION('',(1.108122649677E-16,-1.,-1.108122649677E-16));
#1255 = ORIENTED_EDGE('',*,*,#492,.F.);
#1256 = PLANE('',#1257);
#1257 = AXIS2_PLACEMENT_3D('',#1258,#1259,#1260);
#1258 = CARTESIAN_POINT('',(-10.25,6.5,4.75));
#1259 = DIRECTION('',(-0.707106781187,-0.,-0.707106781187));
#1260 = DIRECTION('',(0.707106781187,1.567122079946E-16,-0.707106781187)
  );
#1261 = ADVANCED_FACE('',(#1262),#1281,.T.);
#1262 = FACE_BOUND('',#1263,.T.);
#1263 = EDGE_LOOP('',(#1264,#1265,#1273,#1280));
#1264 = ORIENTED_EDGE('',*,*,#500,.F.);
#1265 = ORIENTED_EDGE('',*,*,#1266,.T.);
#1266 = EDGE_CURVE('',#493,#1267,#1269,.T.);
#1267 = VERTEX_POINT('',#1268);
#1268 = CARTESIAN_POINT('',(-8.1,-6.5,0.8));
#1269 = LINE('',#1270,#1271);
#1270 = CARTESIAN_POINT('',(-8.1,-6.5,2.6));
#1271 = VECTOR('',#1272,1.);
#1272 = DIRECTION('',(9.327538512771E-35,2.22044604925E-16,-1.));
#1273 = ORIENTED_EDGE('',*,*,#1274,.T.);
#1274 = EDGE_CURVE('',#1267,#567,#1275,.T.);
#1275 = CIRCLE('',#1276,1.6);
#1276 = AXIS2_PLACEMENT_3D('',#1277,#1278,#1279);
#1277 = CARTESIAN_POINT('',(-6.5,-6.5,0.8));
#1278 = DIRECTION('',(0.,-0.,1.));
#1279 = DIRECTION('',(1.,5.551115123126E-16,0.));
#1280 = ORIENTED_EDGE('',*,*,#566,.F.);
#1281 = CYLINDRICAL_SURFACE('',#1282,1.6);
#1282 = AXIS2_PLACEMENT_3D('',#1283,#1284,#1285);
#1283 = CARTESIAN_POINT('',(-6.5,-6.5,2.6));
#1284 = DIRECTION('',(0.,0.,1.));
#1285 = DIRECTION('',(1.,5.551115123126E-16,0.));
#1286 = ADVANCED_FACE('',(#1287),#1305,.T.);
#1287 = FACE_BOUND('',#1288,.T.);
#1288 = EDGE_LOOP('',(#1289,#1290,#1291,#1299));
#1289 = ORIENTED_EDGE('',*,*,#526,.F.);
#1290 = ORIENTED_EDGE('',*,*,#551,.F.);
#1291 = ORIENTED_EDGE('',*,*,#1292,.T.);
#1292 = EDGE_CURVE('',#543,#1293,#1295,.T.);
#1293 = VERTEX_POINT('',#1294);
#1294 = CARTESIAN_POINT('',(29.1,6.5,2.6));
#1295 = LINE('',#1296,#1297);
#1296 = CARTESIAN_POINT('',(29.1,-6.5,2.6));
#1297 = VECTOR('',#1298,1.);
#1298 = DIRECTION('',(-1.110223024625E-16,1.,-1.110223024625E-16));
#1299 = ORIENTED_EDGE('',*,*,#1300,.F.);
#1300 = EDGE_CURVE('',#519,#1293,#1301,.T.);
#1301 = LINE('',#1302,#1303);
#1302 = CARTESIAN_POINT('',(31.25,6.5,4.75));
#1303 = VECTOR('',#1304,1.);
#1304 = DIRECTION('',(-0.707106781187,-1.570092458684E-16,
    -0.707106781187));
#1305 = PLANE('',#1306);
#1306 = AXIS2_PLACEMENT_3D('',#1307,#1308,#1309);
#1307 = CARTESIAN_POINT('',(31.25,-6.5,4.75));
#1308 = DIRECTION('',(0.707106781187,0.,-0.707106781187));
#1309 = DIRECTION('',(-0.707106781187,-1.570092458684E-16,
    -0.707106781187));
#1310 = ADVANCED_FACE('',(#1311),#1330,.T.);
#1311 = FACE_BOUND('',#1312,.T.);
#1312 = EDGE_LOOP('',(#1313,#1314,#1315,#1324));
#1313 = ORIENTED_EDGE('',*,*,#542,.F.);
#1314 = ORIENTED_EDGE('',*,*,#799,.T.);
#1315 = ORIENTED_EDGE('',*,*,#1316,.T.);
#1316 = EDGE_CURVE('',#792,#1317,#1319,.T.);
#1317 = VERTEX_POINT('',#1318);
#1318 = CARTESIAN_POINT('',(29.1,-6.5,0.8));
#1319 = CIRCLE('',#1320,1.6);
#1320 = AXIS2_PLACEMENT_3D('',#1321,#1322,#1323);
#1321 = CARTESIAN_POINT('',(27.5,-6.5,0.8));
#1322 = DIRECTION('',(0.,0.,1.));
#1323 = DIRECTION('',(1.,0.,0.));
#1324 = ORIENTED_EDGE('',*,*,#1325,.T.);
#1325 = EDGE_CURVE('',#1317,#543,#1326,.T.);
#1326 = LINE('',#1327,#1328);
#1327 = CARTESIAN_POINT('',(29.1,-6.5,2.6));
#1328 = VECTOR('',#1329,1.);
#1329 = DIRECTION('',(0.,0.,1.));
#1330 = CYLINDRICAL_SURFACE('',#1331,1.6);
#1331 = AXIS2_PLACEMENT_3D('',#1332,#1333,#1334);
#1332 = CARTESIAN_POINT('',(27.5,-6.5,2.6));
#1333 = DIRECTION('',(0.,0.,1.));
#1334 = DIRECTION('',(1.,0.,0.));
#1335 = ADVANCED_FACE('',(#1336),#1361,.T.);
#1336 = FACE_BOUND('',#1337,.T.);
#1337 = EDGE_LOOP('',(#1338,#1339,#1347,#1355));
#1338 = ORIENTED_EDGE('',*,*,#574,.F.);
#1339 = ORIENTED_EDGE('',*,*,#1340,.T.);
#1340 = EDGE_CURVE('',#567,#1341,#1343,.T.);
#1341 = VERTEX_POINT('',#1342);
#1342 = CARTESIAN_POINT('',(-6.5,-7.3,-3.330669073875E-16));
#1343 = LINE('',#1344,#1345);
#1344 = CARTESIAN_POINT('',(-6.5,-8.1,0.8));
#1345 = VECTOR('',#1346,1.);
#1346 = DIRECTION('',(-1.570092458684E-16,0.707106781187,-0.707106781187
    ));
#1347 = ORIENTED_EDGE('',*,*,#1348,.T.);
#1348 = EDGE_CURVE('',#1341,#1349,#1351,.T.);
#1349 = VERTEX_POINT('',#1350);
#1350 = CARTESIAN_POINT('',(6.5,-7.3,0.));
#1351 = LINE('',#1352,#1353);
#1352 = CARTESIAN_POINT('',(-6.5,-7.3,0.));
#1353 = VECTOR('',#1354,1.);
#1354 = DIRECTION('',(1.,0.,0.));
#1355 = ORIENTED_EDGE('',*,*,#1356,.F.);
#1356 = EDGE_CURVE('',#575,#1349,#1357,.T.);
#1357 = LINE('',#1358,#1359);
#1358 = CARTESIAN_POINT('',(6.5,-8.1,0.8));
#1359 = VECTOR('',#1360,1.);
#1360 = DIRECTION('',(-1.570092458684E-16,0.707106781187,-0.707106781187
    ));
#1361 = PLANE('',#1362);
#1362 = AXIS2_PLACEMENT_3D('',#1363,#1364,#1365);
#1363 = CARTESIAN_POINT('',(-6.5,-8.1,0.8));
#1364 = DIRECTION('',(0.,-0.707106781187,-0.707106781187));
#1365 = DIRECTION('',(-1.570092458684E-16,0.707106781187,-0.707106781187
    ));
#1366 = ADVANCED_FACE('',(#1367),#1386,.T.);
#1367 = FACE_BOUND('',#1368,.T.);
#1368 = EDGE_LOOP('',(#1369,#1370,#1371,#1380));
#1369 = ORIENTED_EDGE('',*,*,#598,.F.);
#1370 = ORIENTED_EDGE('',*,*,#582,.T.);
#1371 = ORIENTED_EDGE('',*,*,#1372,.T.);
#1372 = EDGE_CURVE('',#575,#1373,#1375,.T.);
#1373 = VERTEX_POINT('',#1374);
#1374 = CARTESIAN_POINT('',(8.1,-6.5,0.8));
#1375 = CIRCLE('',#1376,1.6);
#1376 = AXIS2_PLACEMENT_3D('',#1377,#1378,#1379);
#1377 = CARTESIAN_POINT('',(6.5,-6.5,0.8));
#1378 = DIRECTION('',(0.,0.,1.));
#1379 = DIRECTION('',(1.,0.,0.));
#1380 = ORIENTED_EDGE('',*,*,#1381,.T.);
#1381 = EDGE_CURVE('',#1373,#599,#1382,.T.);
#1382 = LINE('',#1383,#1384);
#1383 = CARTESIAN_POINT('',(8.1,-6.5,2.6));
#1384 = VECTOR('',#1385,1.);
#1385 = DIRECTION('',(0.,0.,1.));
#1386 = CYLINDRICAL_SURFACE('',#1387,1.6);
#1387 = AXIS2_PLACEMENT_3D('',#1388,#1389,#1390);
#1388 = CARTESIAN_POINT('',(6.5,-6.5,2.6));
#1389 = DIRECTION('',(0.,0.,1.));
#1390 = DIRECTION('',(1.,0.,0.));
#1391 = ADVANCED_FACE('',(#1392),#1410,.T.);
#1392 = FACE_BOUND('',#1393,.T.);
#1393 = EDGE_LOOP('',(#1394,#1395,#1396,#1404));
#1394 = ORIENTED_EDGE('',*,*,#623,.F.);
#1395 = ORIENTED_EDGE('',*,*,#1381,.F.);
#1396 = ORIENTED_EDGE('',*,*,#1397,.T.);
#1397 = EDGE_CURVE('',#1373,#1398,#1400,.T.);
#1398 = VERTEX_POINT('',#1399);
#1399 = CARTESIAN_POINT('',(8.1,6.5,0.8));
#1400 = LINE('',#1401,#1402);
#1401 = CARTESIAN_POINT('',(8.1,-6.5,0.8));
#1402 = VECTOR('',#1403,1.);
#1403 = DIRECTION('',(0.,1.,-2.22044604925E-16));
#1404 = ORIENTED_EDGE('',*,*,#1405,.F.);
#1405 = EDGE_CURVE('',#624,#1398,#1406,.T.);
#1406 = LINE('',#1407,#1408);
#1407 = CARTESIAN_POINT('',(8.1,6.5,2.6));
#1408 = VECTOR('',#1409,1.);
#1409 = DIRECTION('',(0.,-2.22044604925E-16,-1.));
#1410 = PLANE('',#1411);
#1411 = AXIS2_PLACEMENT_3D('',#1412,#1413,#1414);
#1412 = CARTESIAN_POINT('',(8.1,-6.5,2.6));
#1413 = DIRECTION('',(1.,0.,0.));
#1414 = DIRECTION('',(0.,-2.22044604925E-16,-1.));
#1415 = ADVANCED_FACE('',(#1416),#1435,.T.);
#1416 = FACE_BOUND('',#1417,.T.);
#1417 = EDGE_LOOP('',(#1418,#1419,#1420,#1429));
#1418 = ORIENTED_EDGE('',*,*,#647,.F.);
#1419 = ORIENTED_EDGE('',*,*,#1405,.T.);
#1420 = ORIENTED_EDGE('',*,*,#1421,.T.);
#1421 = EDGE_CURVE('',#1398,#1422,#1424,.T.);
#1422 = VERTEX_POINT('',#1423);
#1423 = CARTESIAN_POINT('',(6.5,8.1,0.8));
#1424 = CIRCLE('',#1425,1.6);
#1425 = AXIS2_PLACEMENT_3D('',#1426,#1427,#1428);
#1426 = CARTESIAN_POINT('',(6.5,6.5,0.8));
#1427 = DIRECTION('',(0.,-0.,1.));
#1428 = DIRECTION('',(1.,5.551115123126E-16,0.));
#1429 = ORIENTED_EDGE('',*,*,#1430,.T.);
#1430 = EDGE_CURVE('',#1422,#648,#1431,.T.);
#1431 = LINE('',#1432,#1433);
#1432 = CARTESIAN_POINT('',(6.5,8.1,2.6));
#1433 = VECTOR('',#1434,1.);
#1434 = DIRECTION('',(0.,0.,1.));
#1435 = CYLINDRICAL_SURFACE('',#1436,1.6);
#1436 = AXIS2_PLACEMENT_3D('',#1437,#1438,#1439);
#1437 = CARTESIAN_POINT('',(6.5,6.5,2.6));
#1438 = DIRECTION('',(0.,0.,1.));
#1439 = DIRECTION('',(1.,5.551115123126E-16,0.));
#1440 = ADVANCED_FACE('',(#1441),#1459,.T.);
#1441 = FACE_BOUND('',#1442,.T.);
#1442 = EDGE_LOOP('',(#1443,#1444,#1445,#1453));
#1443 = ORIENTED_EDGE('',*,*,#687,.F.);
#1444 = ORIENTED_EDGE('',*,*,#656,.F.);
#1445 = ORIENTED_EDGE('',*,*,#1446,.T.);
#1446 = EDGE_CURVE('',#648,#1447,#1449,.T.);
#1447 = VERTEX_POINT('',#1448);
#1448 = CARTESIAN_POINT('',(-6.5,8.1,2.6));
#1449 = LINE('',#1450,#1451);
#1450 = CARTESIAN_POINT('',(6.5,8.1,2.6));
#1451 = VECTOR('',#1452,1.);
#1452 = DIRECTION('',(-1.,-3.040613248383E-17,-3.040613248383E-17));
#1453 = ORIENTED_EDGE('',*,*,#1454,.F.);
#1454 = EDGE_CURVE('',#680,#1447,#1455,.T.);
#1455 = LINE('',#1456,#1457);
#1456 = CARTESIAN_POINT('',(-6.5,10.25,4.75));
#1457 = VECTOR('',#1458,1.);
#1458 = DIRECTION('',(4.300076493795E-17,-0.707106781187,-0.707106781187
    ));
#1459 = PLANE('',#1460);
#1460 = AXIS2_PLACEMENT_3D('',#1461,#1462,#1463);
#1461 = CARTESIAN_POINT('',(6.5,10.25,4.75));
#1462 = DIRECTION('',(0.,0.707106781187,-0.707106781187));
#1463 = DIRECTION('',(4.300076493795E-17,-0.707106781187,-0.707106781187
    ));
#1464 = ADVANCED_FACE('',(#1465),#1483,.T.);
#1465 = FACE_BOUND('',#1466,.T.);
#1466 = EDGE_LOOP('',(#1467,#1468,#1476,#1482));
#1467 = ORIENTED_EDGE('',*,*,#694,.F.);
#1468 = ORIENTED_EDGE('',*,*,#1469,.F.);
#1469 = EDGE_CURVE('',#1470,#671,#1472,.T.);
#1470 = VERTEX_POINT('',#1471);
#1471 = CARTESIAN_POINT('',(27.5,8.1,2.6));
#1472 = LINE('',#1473,#1474);
#1473 = CARTESIAN_POINT('',(27.5,10.25,4.75));
#1474 = VECTOR('',#1475,1.);
#1475 = DIRECTION('',(-1.241787261145E-16,0.707106781187,0.707106781187)
  );
#1476 = ORIENTED_EDGE('',*,*,#1477,.T.);
#1477 = EDGE_CURVE('',#1470,#710,#1478,.T.);
#1478 = LINE('',#1479,#1480);
#1479 = CARTESIAN_POINT('',(27.5,8.1,2.6));
#1480 = VECTOR('',#1481,1.);
#1481 = DIRECTION('',(-1.,-3.040613248383E-17,-3.040613248383E-17));
#1482 = ORIENTED_EDGE('',*,*,#709,.F.);
#1483 = PLANE('',#1484);
#1484 = AXIS2_PLACEMENT_3D('',#1485,#1486,#1487);
#1485 = CARTESIAN_POINT('',(27.5,10.25,4.75));
#1486 = DIRECTION('',(0.,0.707106781187,-0.707106781187));
#1487 = DIRECTION('',(4.300076493795E-17,-0.707106781187,-0.707106781187
    ));
#1488 = ADVANCED_FACE('',(#1489),#1515,.T.);
#1489 = FACE_BOUND('',#1490,.T.);
#1490 = EDGE_LOOP('',(#1491,#1492,#1500,#1509));
#1491 = ORIENTED_EDGE('',*,*,#717,.F.);
#1492 = ORIENTED_EDGE('',*,*,#1493,.T.);
#1493 = EDGE_CURVE('',#710,#1494,#1496,.T.);
#1494 = VERTEX_POINT('',#1495);
#1495 = CARTESIAN_POINT('',(14.5,8.1,0.8));
#1496 = LINE('',#1497,#1498);
#1497 = CARTESIAN_POINT('',(14.5,8.1,2.6));
#1498 = VECTOR('',#1499,1.);
#1499 = DIRECTION('',(2.22044604925E-16,-3.580077122697E-32,-1.));
#1500 = ORIENTED_EDGE('',*,*,#1501,.T.);
#1501 = EDGE_CURVE('',#1494,#1502,#1504,.T.);
#1502 = VERTEX_POINT('',#1503);
#1503 = CARTESIAN_POINT('',(12.9,6.5,0.8));
#1504 = CIRCLE('',#1505,1.6);
#1505 = AXIS2_PLACEMENT_3D('',#1506,#1507,#1508);
#1506 = CARTESIAN_POINT('',(14.5,6.5,0.8));
#1507 = DIRECTION('',(0.,-0.,1.));
#1508 = DIRECTION('',(1.,5.551115123126E-16,0.));
#1509 = ORIENTED_EDGE('',*,*,#1510,.T.);
#1510 = EDGE_CURVE('',#1502,#718,#1511,.T.);
#1511 = LINE('',#1512,#1513);
#1512 = CARTESIAN_POINT('',(12.9,6.5,2.6));
#1513 = VECTOR('',#1514,1.);
#1514 = DIRECTION('',(0.,0.,1.));
#1515 = CYLINDRICAL_SURFACE('',#1516,1.6);
#1516 = AXIS2_PLACEMENT_3D('',#1517,#1518,#1519);
#1517 = CARTESIAN_POINT('',(14.5,6.5,2.6));
#1518 = DIRECTION('',(0.,0.,1.));
#1519 = DIRECTION('',(1.,5.551115123126E-16,0.));
#1520 = ADVANCED_FACE('',(#1521),#1539,.T.);
#1521 = FACE_BOUND('',#1522,.T.);
#1522 = EDGE_LOOP('',(#1523,#1524,#1525,#1533));
#1523 = ORIENTED_EDGE('',*,*,#742,.F.);
#1524 = ORIENTED_EDGE('',*,*,#1510,.F.);
#1525 = ORIENTED_EDGE('',*,*,#1526,.T.);
#1526 = EDGE_CURVE('',#1502,#1527,#1529,.T.);
#1527 = VERTEX_POINT('',#1528);
#1528 = CARTESIAN_POINT('',(12.9,-6.5,0.8));
#1529 = LINE('',#1530,#1531);
#1530 = CARTESIAN_POINT('',(12.9,6.5,0.8));
#1531 = VECTOR('',#1532,1.);
#1532 = DIRECTION('',(2.071129603991E-50,-1.,-2.22044604925E-16));
#1533 = ORIENTED_EDGE('',*,*,#1534,.F.);
#1534 = EDGE_CURVE('',#743,#1527,#1535,.T.);
#1535 = LINE('',#1536,#1537);
#1536 = CARTESIAN_POINT('',(12.9,-6.5,2.6));
#1537 = VECTOR('',#1538,1.);
#1538 = DIRECTION('',(9.327538512771E-35,2.22044604925E-16,-1.));
#1539 = PLANE('',#1540);
#1540 = AXIS2_PLACEMENT_3D('',#1541,#1542,#1543);
#1541 = CARTESIAN_POINT('',(12.9,6.5,2.6));
#1542 = DIRECTION('',(-1.,-0.,-9.327538512771E-35));
#1543 = DIRECTION('',(9.327538512771E-35,2.22044604925E-16,-1.));
#1544 = ADVANCED_FACE('',(#1545),#1557,.T.);
#1545 = FACE_BOUND('',#1546,.T.);
#1546 = EDGE_LOOP('',(#1547,#1548,#1549,#1556));
#1547 = ORIENTED_EDGE('',*,*,#766,.F.);
#1548 = ORIENTED_EDGE('',*,*,#1534,.T.);
#1549 = ORIENTED_EDGE('',*,*,#1550,.T.);
#1550 = EDGE_CURVE('',#1527,#784,#1551,.T.);
#1551 = CIRCLE('',#1552,1.6);
#1552 = AXIS2_PLACEMENT_3D('',#1553,#1554,#1555);
#1553 = CARTESIAN_POINT('',(14.5,-6.5,0.8));
#1554 = DIRECTION('',(0.,-0.,1.));
#1555 = DIRECTION('',(1.,5.551115123126E-16,0.));
#1556 = ORIENTED_EDGE('',*,*,#783,.F.);
#1557 = CYLINDRICAL_SURFACE('',#1558,1.6);
#1558 = AXIS2_PLACEMENT_3D('',#1559,#1560,#1561);
#1559 = CARTESIAN_POINT('',(14.5,-6.5,2.6));
#1560 = DIRECTION('',(0.,0.,1.));
#1561 = DIRECTION('',(1.,5.551115123126E-16,0.));
#1562 = ADVANCED_FACE('',(#1563),#1588,.T.);
#1563 = FACE_BOUND('',#1564,.T.);
#1564 = EDGE_LOOP('',(#1565,#1566,#1574,#1582));
#1565 = ORIENTED_EDGE('',*,*,#791,.F.);
#1566 = ORIENTED_EDGE('',*,*,#1567,.T.);
#1567 = EDGE_CURVE('',#784,#1568,#1570,.T.);
#1568 = VERTEX_POINT('',#1569);
#1569 = CARTESIAN_POINT('',(14.5,-7.3,-3.330669073875E-16));
#1570 = LINE('',#1571,#1572);
#1571 = CARTESIAN_POINT('',(14.5,-8.1,0.8));
#1572 = VECTOR('',#1573,1.);
#1573 = DIRECTION('',(-1.570092458684E-16,0.707106781187,-0.707106781187
    ));
#1574 = ORIENTED_EDGE('',*,*,#1575,.T.);
#1575 = EDGE_CURVE('',#1568,#1576,#1578,.T.);
#1576 = VERTEX_POINT('',#1577);
#1577 = CARTESIAN_POINT('',(27.5,-7.3,0.));
#1578 = LINE('',#1579,#1580);
#1579 = CARTESIAN_POINT('',(14.5,-7.3,0.));
#1580 = VECTOR('',#1581,1.);
#1581 = DIRECTION('',(1.,0.,0.));
#1582 = ORIENTED_EDGE('',*,*,#1583,.F.);
#1583 = EDGE_CURVE('',#792,#1576,#1584,.T.);
#1584 = LINE('',#1585,#1586);
#1585 = CARTESIAN_POINT('',(27.5,-8.1,0.8));
#1586 = VECTOR('',#1587,1.);
#1587 = DIRECTION('',(-1.570092458684E-16,0.707106781187,-0.707106781187
    ));
#1588 = PLANE('',#1589);
#1589 = AXIS2_PLACEMENT_3D('',#1590,#1591,#1592);
#1590 = CARTESIAN_POINT('',(14.5,-8.1,0.8));
#1591 = DIRECTION('',(0.,-0.707106781187,-0.707106781187));
#1592 = DIRECTION('',(-1.570092458684E-16,0.707106781187,-0.707106781187
    ));
#1593 = ADVANCED_FACE('',(#1594),#1606,.T.);
#1594 = FACE_BOUND('',#1595,.T.);
#1595 = EDGE_LOOP('',(#1596,#1597,#1598,#1605));
#1596 = ORIENTED_EDGE('',*,*,#816,.F.);
#1597 = ORIENTED_EDGE('',*,*,#1454,.T.);
#1598 = ORIENTED_EDGE('',*,*,#1599,.T.);
#1599 = EDGE_CURVE('',#1447,#1243,#1600,.T.);
#1600 = CIRCLE('',#1601,1.6);
#1601 = AXIS2_PLACEMENT_3D('',#1602,#1603,#1604);
#1602 = CARTESIAN_POINT('',(-6.5,6.5,2.6));
#1603 = DIRECTION('',(0.,-0.,1.));
#1604 = DIRECTION('',(1.,2.368475785867E-16,0.));
#1605 = ORIENTED_EDGE('',*,*,#1242,.T.);
#1606 = CONICAL_SURFACE('',#1607,3.75,0.785398163397);
#1607 = AXIS2_PLACEMENT_3D('',#1608,#1609,#1610);
#1608 = CARTESIAN_POINT('',(-6.5,6.5,4.75));
#1609 = DIRECTION('',(0.,0.,1.));
#1610 = DIRECTION('',(1.,2.368475785867E-16,0.));
#1611 = ADVANCED_FACE('',(#1612),#1624,.T.);
#1612 = FACE_BOUND('',#1613,.T.);
#1613 = EDGE_LOOP('',(#1614,#1615,#1616,#1623));
#1614 = ORIENTED_EDGE('',*,*,#834,.F.);
#1615 = ORIENTED_EDGE('',*,*,#1300,.T.);
#1616 = ORIENTED_EDGE('',*,*,#1617,.T.);
#1617 = EDGE_CURVE('',#1293,#1470,#1618,.T.);
#1618 = CIRCLE('',#1619,1.6);
#1619 = AXIS2_PLACEMENT_3D('',#1620,#1621,#1622);
#1620 = CARTESIAN_POINT('',(27.5,6.5,2.6));
#1621 = DIRECTION('',(0.,-0.,1.));
#1622 = DIRECTION('',(1.,2.368475785867E-16,0.));
#1623 = ORIENTED_EDGE('',*,*,#1469,.T.);
#1624 = CONICAL_SURFACE('',#1625,3.75,0.785398163397);
#1625 = AXIS2_PLACEMENT_3D('',#1626,#1627,#1628);
#1626 = CARTESIAN_POINT('',(27.5,6.5,4.75));
#1627 = DIRECTION('',(0.,0.,1.));
#1628 = DIRECTION('',(1.,2.368475785867E-16,0.));
#1629 = ADVANCED_FACE('',(#1630),#1636,.T.);
#1630 = FACE_BOUND('',#1631,.T.);
#1631 = EDGE_LOOP('',(#1632,#1633,#1634,#1635));
#1632 = ORIENTED_EDGE('',*,*,#857,.T.);
#1633 = ORIENTED_EDGE('',*,*,#906,.T.);
#1634 = ORIENTED_EDGE('',*,*,#930,.T.);
#1635 = ORIENTED_EDGE('',*,*,#882,.F.);
#1636 = PLANE('',#1637);
#1637 = AXIS2_PLACEMENT_3D('',#1638,#1639,#1640);
#1638 = CARTESIAN_POINT('',(10.5,-4.625,6.777777777778));
#1639 = DIRECTION('',(0.,0.,1.));
#1640 = DIRECTION('',(1.,0.,0.));
#1641 = ADVANCED_FACE('',(#1642),#1648,.T.);
#1642 = FACE_BOUND('',#1643,.T.);
#1643 = EDGE_LOOP('',(#1644,#1645,#1646,#1647));
#1644 = ORIENTED_EDGE('',*,*,#955,.T.);
#1645 = ORIENTED_EDGE('',*,*,#980,.T.);
#1646 = ORIENTED_EDGE('',*,*,#1004,.T.);
#1647 = ORIENTED_EDGE('',*,*,#1029,.F.);
#1648 = PLANE('',#1649);
#1649 = AXIS2_PLACEMENT_3D('',#1650,#1651,#1652);
#1650 = CARTESIAN_POINT('',(10.5,4.625,6.777777777778));
#1651 = DIRECTION('',(0.,0.,1.));
#1652 = DIRECTION('',(1.,0.,0.));
#1653 = ADVANCED_FACE('',(#1654),#1660,.T.);
#1654 = FACE_BOUND('',#1655,.T.);
#1655 = EDGE_LOOP('',(#1656,#1657,#1658,#1659));
#1656 = ORIENTED_EDGE('',*,*,#1053,.T.);
#1657 = ORIENTED_EDGE('',*,*,#1102,.T.);
#1658 = ORIENTED_EDGE('',*,*,#1126,.T.);
#1659 = ORIENTED_EDGE('',*,*,#1078,.F.);
#1660 = PLANE('',#1661);
#1661 = AXIS2_PLACEMENT_3D('',#1662,#1663,#1664);
#1662 = CARTESIAN_POINT('',(10.5,-4.625,6.777777777778));
#1663 = DIRECTION('',(0.,0.,1.));
#1664 = DIRECTION('',(1.,0.,0.));
#1665 = ADVANCED_FACE('',(#1666),#1672,.T.);
#1666 = FACE_BOUND('',#1667,.T.);
#1667 = EDGE_LOOP('',(#1668,#1669,#1670,#1671));
#1668 = ORIENTED_EDGE('',*,*,#1151,.T.);
#1669 = ORIENTED_EDGE('',*,*,#1176,.T.);
#1670 = ORIENTED_EDGE('',*,*,#1200,.T.);
#1671 = ORIENTED_EDGE('',*,*,#1225,.F.);
#1672 = PLANE('',#1673);
#1673 = AXIS2_PLACEMENT_3D('',#1674,#1675,#1676);
#1674 = CARTESIAN_POINT('',(10.5,4.625,6.777777777778));
#1675 = DIRECTION('',(0.,0.,1.));
#1676 = DIRECTION('',(1.,0.,0.));
#1677 = ADVANCED_FACE('',(#1678),#1696,.T.);
#1678 = FACE_BOUND('',#1679,.T.);
#1679 = EDGE_LOOP('',(#1680,#1681,#1689,#1695));
#1680 = ORIENTED_EDGE('',*,*,#1250,.F.);
#1681 = ORIENTED_EDGE('',*,*,#1682,.F.);
#1682 = EDGE_CURVE('',#1683,#1243,#1685,.T.);
#1683 = VERTEX_POINT('',#1684);
#1684 = CARTESIAN_POINT('',(-8.1,6.5,0.8));
#1685 = LINE('',#1686,#1687);
#1686 = CARTESIAN_POINT('',(-8.1,6.5,2.6));
#1687 = VECTOR('',#1688,1.);
#1688 = DIRECTION('',(0.,0.,1.));
#1689 = ORIENTED_EDGE('',*,*,#1690,.T.);
#1690 = EDGE_CURVE('',#1683,#1267,#1691,.T.);
#1691 = LINE('',#1692,#1693);
#1692 = CARTESIAN_POINT('',(-8.1,6.5,0.8));
#1693 = VECTOR('',#1694,1.);
#1694 = DIRECTION('',(2.071129603991E-50,-1.,-2.22044604925E-16));
#1695 = ORIENTED_EDGE('',*,*,#1266,.F.);
#1696 = PLANE('',#1697);
#1697 = AXIS2_PLACEMENT_3D('',#1698,#1699,#1700);
#1698 = CARTESIAN_POINT('',(-8.1,6.5,2.6));
#1699 = DIRECTION('',(-1.,-0.,-9.327538512771E-35));
#1700 = DIRECTION('',(9.327538512771E-35,2.22044604925E-16,-1.));
#1701 = ADVANCED_FACE('',(#1702),#1721,.T.);
#1702 = FACE_BOUND('',#1703,.T.);
#1703 = EDGE_LOOP('',(#1704,#1705,#1713,#1720));
#1704 = ORIENTED_EDGE('',*,*,#1274,.F.);
#1705 = ORIENTED_EDGE('',*,*,#1706,.T.);
#1706 = EDGE_CURVE('',#1267,#1707,#1709,.T.);
#1707 = VERTEX_POINT('',#1708);
#1708 = CARTESIAN_POINT('',(-7.3,-6.5,0.));
#1709 = LINE('',#1710,#1711);
#1710 = CARTESIAN_POINT('',(-8.1,-6.5,0.8));
#1711 = VECTOR('',#1712,1.);
#1712 = DIRECTION('',(0.707106781187,1.567122079946E-16,-0.707106781187)
  );
#1713 = ORIENTED_EDGE('',*,*,#1714,.T.);
#1714 = EDGE_CURVE('',#1707,#1341,#1715,.T.);
#1715 = CIRCLE('',#1716,0.8);
#1716 = AXIS2_PLACEMENT_3D('',#1717,#1718,#1719);
#1717 = CARTESIAN_POINT('',(-6.5,-6.5,0.));
#1718 = DIRECTION('',(0.,-0.,1.));
#1719 = DIRECTION('',(1.,1.110223024625E-15,0.));
#1720 = ORIENTED_EDGE('',*,*,#1340,.F.);
#1721 = CONICAL_SURFACE('',#1722,1.6,0.785398163397);
#1722 = AXIS2_PLACEMENT_3D('',#1723,#1724,#1725);
#1723 = CARTESIAN_POINT('',(-6.5,-6.5,0.8));
#1724 = DIRECTION('',(0.,0.,1.));
#1725 = DIRECTION('',(1.,5.551115123126E-16,0.));
#1726 = ADVANCED_FACE('',(#1727),#1745,.T.);
#1727 = FACE_BOUND('',#1728,.T.);
#1728 = EDGE_LOOP('',(#1729,#1730,#1731,#1739));
#1729 = ORIENTED_EDGE('',*,*,#1292,.F.);
#1730 = ORIENTED_EDGE('',*,*,#1325,.F.);
#1731 = ORIENTED_EDGE('',*,*,#1732,.T.);
#1732 = EDGE_CURVE('',#1317,#1733,#1735,.T.);
#1733 = VERTEX_POINT('',#1734);
#1734 = CARTESIAN_POINT('',(29.1,6.5,0.8));
#1735 = LINE('',#1736,#1737);
#1736 = CARTESIAN_POINT('',(29.1,-6.5,0.8));
#1737 = VECTOR('',#1738,1.);
#1738 = DIRECTION('',(0.,1.,-2.22044604925E-16));
#1739 = ORIENTED_EDGE('',*,*,#1740,.F.);
#1740 = EDGE_CURVE('',#1293,#1733,#1741,.T.);
#1741 = LINE('',#1742,#1743);
#1742 = CARTESIAN_POINT('',(29.1,6.5,2.6));
#1743 = VECTOR('',#1744,1.);
#1744 = DIRECTION('',(0.,-2.22044604925E-16,-1.));
#1745 = PLANE('',#1746);
#1746 = AXIS2_PLACEMENT_3D('',#1747,#1748,#1749);
#1747 = CARTESIAN_POINT('',(29.1,-6.5,2.6));
#1748 = DIRECTION('',(1.,0.,0.));
#1749 = DIRECTION('',(0.,-2.22044604925E-16,-1.));
#1750 = ADVANCED_FACE('',(#1751),#1770,.T.);
#1751 = FACE_BOUND('',#1752,.T.);
#1752 = EDGE_LOOP('',(#1753,#1754,#1755,#1764));
#1753 = ORIENTED_EDGE('',*,*,#1316,.F.);
#1754 = ORIENTED_EDGE('',*,*,#1583,.T.);
#1755 = ORIENTED_EDGE('',*,*,#1756,.T.);
#1756 = EDGE_CURVE('',#1576,#1757,#1759,.T.);
#1757 = VERTEX_POINT('',#1758);
#1758 = CARTESIAN_POINT('',(28.3,-6.5,0.));
#1759 = CIRCLE('',#1760,0.8);
#1760 = AXIS2_PLACEMENT_3D('',#1761,#1762,#1763);
#1761 = CARTESIAN_POINT('',(27.5,-6.5,0.));
#1762 = DIRECTION('',(-0.,0.,1.));
#1763 = DIRECTION('',(1.,-1.110223024625E-15,0.));
#1764 = ORIENTED_EDGE('',*,*,#1765,.T.);
#1765 = EDGE_CURVE('',#1757,#1317,#1766,.T.);
#1766 = LINE('',#1767,#1768);
#1767 = CARTESIAN_POINT('',(29.1,-6.5,0.8));
#1768 = VECTOR('',#1769,1.);
#1769 = DIRECTION('',(0.707106781187,-1.731912112471E-16,0.707106781187)
  );
#1770 = CONICAL_SURFACE('',#1771,1.6,0.785398163397);
#1771 = AXIS2_PLACEMENT_3D('',#1772,#1773,#1774);
#1772 = CARTESIAN_POINT('',(27.5,-6.5,0.8));
#1773 = DIRECTION('',(0.,0.,1.));
#1774 = DIRECTION('',(1.,0.,0.));
#1775 = ADVANCED_FACE('',(#1776),#1829,.F.);
#1776 = FACE_BOUND('',#1777,.F.);
#1777 = EDGE_LOOP('',(#1778,#1779,#1780,#1789,#1797,#1806,#1814,#1823));
#1778 = ORIENTED_EDGE('',*,*,#1714,.T.);
#1779 = ORIENTED_EDGE('',*,*,#1348,.T.);
#1780 = ORIENTED_EDGE('',*,*,#1781,.T.);
#1781 = EDGE_CURVE('',#1349,#1782,#1784,.T.);
#1782 = VERTEX_POINT('',#1783);
#1783 = CARTESIAN_POINT('',(7.3,-6.5,0.));
#1784 = CIRCLE('',#1785,0.8);
#1785 = AXIS2_PLACEMENT_3D('',#1786,#1787,#1788);
#1786 = CARTESIAN_POINT('',(6.5,-6.5,0.));
#1787 = DIRECTION('',(-0.,0.,1.));
#1788 = DIRECTION('',(1.,-1.110223024625E-15,0.));
#1789 = ORIENTED_EDGE('',*,*,#1790,.T.);
#1790 = EDGE_CURVE('',#1782,#1791,#1793,.T.);
#1791 = VERTEX_POINT('',#1792);
#1792 = CARTESIAN_POINT('',(7.3,6.5,0.));
#1793 = LINE('',#1794,#1795);
#1794 = CARTESIAN_POINT('',(7.3,-6.5,0.));
#1795 = VECTOR('',#1796,1.);
#1796 = DIRECTION('',(0.,1.,0.));
#1797 = ORIENTED_EDGE('',*,*,#1798,.T.);
#1798 = EDGE_CURVE('',#1791,#1799,#1801,.T.);
#1799 = VERTEX_POINT('',#1800);
#1800 = CARTESIAN_POINT('',(6.5,7.3,0.));
#1801 = CIRCLE('',#1802,0.8);
#1802 = AXIS2_PLACEMENT_3D('',#1803,#1804,#1805);
#1803 = CARTESIAN_POINT('',(6.5,6.5,0.));
#1804 = DIRECTION('',(0.,0.,1.));
#1805 = DIRECTION('',(1.,0.,0.));
#1806 = ORIENTED_EDGE('',*,*,#1807,.T.);
#1807 = EDGE_CURVE('',#1799,#1808,#1810,.T.);
#1808 = VERTEX_POINT('',#1809);
#1809 = CARTESIAN_POINT('',(-6.5,7.3,0.));
#1810 = LINE('',#1811,#1812);
#1811 = CARTESIAN_POINT('',(6.5,7.3,0.));
#1812 = VECTOR('',#1813,1.);
#1813 = DIRECTION('',(-1.,1.612323399574E-16,0.));
#1814 = ORIENTED_EDGE('',*,*,#1815,.T.);
#1815 = EDGE_CURVE('',#1808,#1816,#1818,.T.);
#1816 = VERTEX_POINT('',#1817);
#1817 = CARTESIAN_POINT('',(-7.3,6.5,0.));
#1818 = CIRCLE('',#1819,0.8);
#1819 = AXIS2_PLACEMENT_3D('',#1820,#1821,#1822);
#1820 = CARTESIAN_POINT('',(-6.5,6.5,0.));
#1821 = DIRECTION('',(0.,-0.,1.));
#1822 = DIRECTION('',(1.,1.110223024625E-15,0.));
#1823 = ORIENTED_EDGE('',*,*,#1824,.T.);
#1824 = EDGE_CURVE('',#1816,#1707,#1825,.T.);
#1825 = LINE('',#1826,#1827);
#1826 = CARTESIAN_POINT('',(-7.3,6.5,0.));
#1827 = VECTOR('',#1828,1.);
#1828 = DIRECTION('',(-4.20074989704E-19,-1.,0.));
#1829 = PLANE('',#1830);
#1830 = AXIS2_PLACEMENT_3D('',#1831,#1832,#1833);
#1831 = CARTESIAN_POINT('',(-1.391949578184E-15,-3.538854859789E-16,0.)
  );
#1832 = DIRECTION('',(0.,0.,1.));
#1833 = DIRECTION('',(1.,0.,0.));
#1834 = ADVANCED_FACE('',(#1835),#1846,.T.);
#1835 = FACE_BOUND('',#1836,.T.);
#1836 = EDGE_LOOP('',(#1837,#1838,#1839,#1840));
#1837 = ORIENTED_EDGE('',*,*,#1372,.F.);
#1838 = ORIENTED_EDGE('',*,*,#1356,.T.);
#1839 = ORIENTED_EDGE('',*,*,#1781,.T.);
#1840 = ORIENTED_EDGE('',*,*,#1841,.T.);
#1841 = EDGE_CURVE('',#1782,#1373,#1842,.T.);
#1842 = LINE('',#1843,#1844);
#1843 = CARTESIAN_POINT('',(8.1,-6.5,0.8));
#1844 = VECTOR('',#1845,1.);
#1845 = DIRECTION('',(0.707106781187,-1.731912112471E-16,0.707106781187)
  );
#1846 = CONICAL_SURFACE('',#1847,1.6,0.785398163397);
#1847 = AXIS2_PLACEMENT_3D('',#1848,#1849,#1850);
#1848 = CARTESIAN_POINT('',(6.5,-6.5,0.8));
#1849 = DIRECTION('',(0.,0.,1.));
#1850 = DIRECTION('',(1.,0.,0.));
#1851 = ADVANCED_FACE('',(#1852),#1863,.T.);
#1852 = FACE_BOUND('',#1853,.T.);
#1853 = EDGE_LOOP('',(#1854,#1855,#1856,#1857));
#1854 = ORIENTED_EDGE('',*,*,#1397,.F.);
#1855 = ORIENTED_EDGE('',*,*,#1841,.F.);
#1856 = ORIENTED_EDGE('',*,*,#1790,.T.);
#1857 = ORIENTED_EDGE('',*,*,#1858,.F.);
#1858 = EDGE_CURVE('',#1398,#1791,#1859,.T.);
#1859 = LINE('',#1860,#1861);
#1860 = CARTESIAN_POINT('',(8.1,6.5,0.8));
#1861 = VECTOR('',#1862,1.);
#1862 = DIRECTION('',(-0.707106781187,-1.570092458684E-16,
    -0.707106781187));
#1863 = PLANE('',#1864);
#1864 = AXIS2_PLACEMENT_3D('',#1865,#1866,#1867);
#1865 = CARTESIAN_POINT('',(8.1,-6.5,0.8));
#1866 = DIRECTION('',(0.707106781187,0.,-0.707106781187));
#1867 = DIRECTION('',(-0.707106781187,-1.570092458684E-16,
    -0.707106781187));
#1868 = ADVANCED_FACE('',(#1869),#1880,.T.);
#1869 = FACE_BOUND('',#1870,.T.);
#1870 = EDGE_LOOP('',(#1871,#1872,#1873,#1874));
#1871 = ORIENTED_EDGE('',*,*,#1421,.F.);
#1872 = ORIENTED_EDGE('',*,*,#1858,.T.);
#1873 = ORIENTED_EDGE('',*,*,#1798,.T.);
#1874 = ORIENTED_EDGE('',*,*,#1875,.T.);
#1875 = EDGE_CURVE('',#1799,#1422,#1876,.T.);
#1876 = LINE('',#1877,#1878);
#1877 = CARTESIAN_POINT('',(6.5,8.1,0.8));
#1878 = VECTOR('',#1879,1.);
#1879 = DIRECTION('',(4.329780281177E-17,0.707106781187,0.707106781187)
  );
#1880 = CONICAL_SURFACE('',#1881,1.6,0.785398163397);
#1881 = AXIS2_PLACEMENT_3D('',#1882,#1883,#1884);
#1882 = CARTESIAN_POINT('',(6.5,6.5,0.8));
#1883 = DIRECTION('',(0.,0.,1.));
#1884 = DIRECTION('',(1.,0.,0.));
#1885 = ADVANCED_FACE('',(#1886),#1904,.T.);
#1886 = FACE_BOUND('',#1887,.T.);
#1887 = EDGE_LOOP('',(#1888,#1889,#1890,#1898));
#1888 = ORIENTED_EDGE('',*,*,#1446,.F.);
#1889 = ORIENTED_EDGE('',*,*,#1430,.F.);
#1890 = ORIENTED_EDGE('',*,*,#1891,.T.);
#1891 = EDGE_CURVE('',#1422,#1892,#1894,.T.);
#1892 = VERTEX_POINT('',#1893);
#1893 = CARTESIAN_POINT('',(-6.5,8.1,0.8));
#1894 = LINE('',#1895,#1896);
#1895 = CARTESIAN_POINT('',(6.5,8.1,0.8));
#1896 = VECTOR('',#1897,1.);
#1897 = DIRECTION('',(-1.,-7.949368103104E-48,-2.22044604925E-16));
#1898 = ORIENTED_EDGE('',*,*,#1899,.F.);
#1899 = EDGE_CURVE('',#1447,#1892,#1900,.T.);
#1900 = LINE('',#1901,#1902);
#1901 = CARTESIAN_POINT('',(-6.5,8.1,2.6));
#1902 = VECTOR('',#1903,1.);
#1903 = DIRECTION('',(2.22044604925E-16,-3.580077122697E-32,-1.));
#1904 = PLANE('',#1905);
#1905 = AXIS2_PLACEMENT_3D('',#1906,#1907,#1908);
#1906 = CARTESIAN_POINT('',(6.5,8.1,2.6));
#1907 = DIRECTION('',(0.,1.,-3.580077122697E-32));
#1908 = DIRECTION('',(2.22044604925E-16,-3.580077122697E-32,-1.));
#1909 = ADVANCED_FACE('',(#1910),#1928,.T.);
#1910 = FACE_BOUND('',#1911,.T.);
#1911 = EDGE_LOOP('',(#1912,#1913,#1921,#1927));
#1912 = ORIENTED_EDGE('',*,*,#1477,.F.);
#1913 = ORIENTED_EDGE('',*,*,#1914,.F.);
#1914 = EDGE_CURVE('',#1915,#1470,#1917,.T.);
#1915 = VERTEX_POINT('',#1916);
#1916 = CARTESIAN_POINT('',(27.5,8.1,0.8));
#1917 = LINE('',#1918,#1919);
#1918 = CARTESIAN_POINT('',(27.5,8.1,2.6));
#1919 = VECTOR('',#1920,1.);
#1920 = DIRECTION('',(0.,0.,1.));
#1921 = ORIENTED_EDGE('',*,*,#1922,.T.);
#1922 = EDGE_CURVE('',#1915,#1494,#1923,.T.);
#1923 = LINE('',#1924,#1925);
#1924 = CARTESIAN_POINT('',(27.5,8.1,0.8));
#1925 = VECTOR('',#1926,1.);
#1926 = DIRECTION('',(-1.,-7.949368103104E-48,-2.22044604925E-16));
#1927 = ORIENTED_EDGE('',*,*,#1493,.F.);
#1928 = PLANE('',#1929);
#1929 = AXIS2_PLACEMENT_3D('',#1930,#1931,#1932);
#1930 = CARTESIAN_POINT('',(27.5,8.1,2.6));
#1931 = DIRECTION('',(0.,1.,-3.580077122697E-32));
#1932 = DIRECTION('',(2.22044604925E-16,-3.580077122697E-32,-1.));
#1933 = ADVANCED_FACE('',(#1934),#1960,.T.);
#1934 = FACE_BOUND('',#1935,.T.);
#1935 = EDGE_LOOP('',(#1936,#1937,#1945,#1954));
#1936 = ORIENTED_EDGE('',*,*,#1501,.F.);
#1937 = ORIENTED_EDGE('',*,*,#1938,.T.);
#1938 = EDGE_CURVE('',#1494,#1939,#1941,.T.);
#1939 = VERTEX_POINT('',#1940);
#1940 = CARTESIAN_POINT('',(14.5,7.3,0.));
#1941 = LINE('',#1942,#1943);
#1942 = CARTESIAN_POINT('',(14.5,8.1,0.8));
#1943 = VECTOR('',#1944,1.);
#1944 = DIRECTION('',(4.300076493795E-17,-0.707106781187,-0.707106781187
    ));
#1945 = ORIENTED_EDGE('',*,*,#1946,.T.);
#1946 = EDGE_CURVE('',#1939,#1947,#1949,.T.);
#1947 = VERTEX_POINT('',#1948);
#1948 = CARTESIAN_POINT('',(13.7,6.5,0.));
#1949 = CIRCLE('',#1950,0.8);
#1950 = AXIS2_PLACEMENT_3D('',#1951,#1952,#1953);
#1951 = CARTESIAN_POINT('',(14.5,6.5,0.));
#1952 = DIRECTION('',(0.,-0.,1.));
#1953 = DIRECTION('',(1.,1.110223024625E-15,0.));
#1954 = ORIENTED_EDGE('',*,*,#1955,.T.);
#1955 = EDGE_CURVE('',#1947,#1502,#1956,.T.);
#1956 = LINE('',#1957,#1958);
#1957 = CARTESIAN_POINT('',(12.9,6.5,0.8));
#1958 = VECTOR('',#1959,1.);
#1959 = DIRECTION('',(-0.707106781187,-6.199460007841E-16,0.707106781187
    ));
#1960 = CONICAL_SURFACE('',#1961,1.6,0.785398163397);
#1961 = AXIS2_PLACEMENT_3D('',#1962,#1963,#1964);
#1962 = CARTESIAN_POINT('',(14.5,6.5,0.8));
#1963 = DIRECTION('',(0.,0.,1.));
#1964 = DIRECTION('',(1.,5.551115123126E-16,0.));
#1965 = ADVANCED_FACE('',(#1966),#1984,.T.);
#1966 = FACE_BOUND('',#1967,.T.);
#1967 = EDGE_LOOP('',(#1968,#1969,#1970,#1978));
#1968 = ORIENTED_EDGE('',*,*,#1526,.F.);
#1969 = ORIENTED_EDGE('',*,*,#1955,.F.);
#1970 = ORIENTED_EDGE('',*,*,#1971,.T.);
#1971 = EDGE_CURVE('',#1947,#1972,#1974,.T.);
#1972 = VERTEX_POINT('',#1973);
#1973 = CARTESIAN_POINT('',(13.7,-6.5,0.));
#1974 = LINE('',#1975,#1976);
#1975 = CARTESIAN_POINT('',(13.7,6.5,0.));
#1976 = VECTOR('',#1977,1.);
#1977 = DIRECTION('',(-4.20074989704E-19,-1.,0.));
#1978 = ORIENTED_EDGE('',*,*,#1979,.F.);
#1979 = EDGE_CURVE('',#1527,#1972,#1980,.T.);
#1980 = LINE('',#1981,#1982);
#1981 = CARTESIAN_POINT('',(12.9,-6.5,0.8));
#1982 = VECTOR('',#1983,1.);
#1983 = DIRECTION('',(0.707106781187,1.567122079946E-16,-0.707106781187)
  );
#1984 = PLANE('',#1985);
#1985 = AXIS2_PLACEMENT_3D('',#1986,#1987,#1988);
#1986 = CARTESIAN_POINT('',(12.9,6.5,0.8));
#1987 = DIRECTION('',(-0.707106781187,-0.,-0.707106781187));
#1988 = DIRECTION('',(0.707106781187,1.567122079946E-16,-0.707106781187)
  );
#1989 = ADVANCED_FACE('',(#1990),#2002,.T.);
#1990 = FACE_BOUND('',#1991,.T.);
#1991 = EDGE_LOOP('',(#1992,#1993,#1994,#2001));
#1992 = ORIENTED_EDGE('',*,*,#1550,.F.);
#1993 = ORIENTED_EDGE('',*,*,#1979,.T.);
#1994 = ORIENTED_EDGE('',*,*,#1995,.T.);
#1995 = EDGE_CURVE('',#1972,#1568,#1996,.T.);
#1996 = CIRCLE('',#1997,0.8);
#1997 = AXIS2_PLACEMENT_3D('',#1998,#1999,#2000);
#1998 = CARTESIAN_POINT('',(14.5,-6.5,0.));
#1999 = DIRECTION('',(0.,-0.,1.));
#2000 = DIRECTION('',(1.,1.110223024625E-15,0.));
#2001 = ORIENTED_EDGE('',*,*,#1567,.F.);
#2002 = CONICAL_SURFACE('',#2003,1.6,0.785398163397);
#2003 = AXIS2_PLACEMENT_3D('',#2004,#2005,#2006);
#2004 = CARTESIAN_POINT('',(14.5,-6.5,0.8));
#2005 = DIRECTION('',(0.,0.,1.));
#2006 = DIRECTION('',(1.,5.551115123126E-16,0.));
#2007 = ADVANCED_FACE('',(#2008),#2038,.F.);
#2008 = FACE_BOUND('',#2009,.F.);
#2009 = EDGE_LOOP('',(#2010,#2011,#2012,#2013,#2021,#2030,#2036,#2037));
#2010 = ORIENTED_EDGE('',*,*,#1995,.T.);
#2011 = ORIENTED_EDGE('',*,*,#1575,.T.);
#2012 = ORIENTED_EDGE('',*,*,#1756,.T.);
#2013 = ORIENTED_EDGE('',*,*,#2014,.T.);
#2014 = EDGE_CURVE('',#1757,#2015,#2017,.T.);
#2015 = VERTEX_POINT('',#2016);
#2016 = CARTESIAN_POINT('',(28.3,6.5,0.));
#2017 = LINE('',#2018,#2019);
#2018 = CARTESIAN_POINT('',(28.3,-6.5,0.));
#2019 = VECTOR('',#2020,1.);
#2020 = DIRECTION('',(0.,1.,0.));
#2021 = ORIENTED_EDGE('',*,*,#2022,.T.);
#2022 = EDGE_CURVE('',#2015,#2023,#2025,.T.);
#2023 = VERTEX_POINT('',#2024);
#2024 = CARTESIAN_POINT('',(27.5,7.3,0.));
#2025 = CIRCLE('',#2026,0.8);
#2026 = AXIS2_PLACEMENT_3D('',#2027,#2028,#2029);
#2027 = CARTESIAN_POINT('',(27.5,6.5,0.));
#2028 = DIRECTION('',(0.,0.,1.));
#2029 = DIRECTION('',(1.,0.,0.));
#2030 = ORIENTED_EDGE('',*,*,#2031,.T.);
#2031 = EDGE_CURVE('',#2023,#1939,#2032,.T.);
#2032 = LINE('',#2033,#2034);
#2033 = CARTESIAN_POINT('',(27.5,7.3,0.));
#2034 = VECTOR('',#2035,1.);
#2035 = DIRECTION('',(-1.,1.612323399574E-16,0.));
#2036 = ORIENTED_EDGE('',*,*,#1946,.T.);
#2037 = ORIENTED_EDGE('',*,*,#1971,.T.);
#2038 = PLANE('',#2039);
#2039 = AXIS2_PLACEMENT_3D('',#2040,#2041,#2042);
#2040 = CARTESIAN_POINT('',(21.,-3.538854859789E-16,0.));
#2041 = DIRECTION('',(0.,0.,1.));
#2042 = DIRECTION('',(1.,0.,0.));
#2043 = ADVANCED_FACE('',(#2044),#2056,.T.);
#2044 = FACE_BOUND('',#2045,.T.);
#2045 = EDGE_LOOP('',(#2046,#2047,#2048,#2055));
#2046 = ORIENTED_EDGE('',*,*,#1599,.F.);
#2047 = ORIENTED_EDGE('',*,*,#1899,.T.);
#2048 = ORIENTED_EDGE('',*,*,#2049,.T.);
#2049 = EDGE_CURVE('',#1892,#1683,#2050,.T.);
#2050 = CIRCLE('',#2051,1.6);
#2051 = AXIS2_PLACEMENT_3D('',#2052,#2053,#2054);
#2052 = CARTESIAN_POINT('',(-6.5,6.5,0.8));
#2053 = DIRECTION('',(0.,-0.,1.));
#2054 = DIRECTION('',(1.,5.551115123126E-16,0.));
#2055 = ORIENTED_EDGE('',*,*,#1682,.T.);
#2056 = CYLINDRICAL_SURFACE('',#2057,1.6);
#2057 = AXIS2_PLACEMENT_3D('',#2058,#2059,#2060);
#2058 = CARTESIAN_POINT('',(-6.5,6.5,2.6));
#2059 = DIRECTION('',(0.,0.,1.));
#2060 = DIRECTION('',(1.,5.551115123126E-16,0.));
#2061 = ADVANCED_FACE('',(#2062),#2074,.T.);
#2062 = FACE_BOUND('',#2063,.T.);
#2063 = EDGE_LOOP('',(#2064,#2065,#2066,#2073));
#2064 = ORIENTED_EDGE('',*,*,#1617,.F.);
#2065 = ORIENTED_EDGE('',*,*,#1740,.T.);
#2066 = ORIENTED_EDGE('',*,*,#2067,.T.);
#2067 = EDGE_CURVE('',#1733,#1915,#2068,.T.);
#2068 = CIRCLE('',#2069,1.6);
#2069 = AXIS2_PLACEMENT_3D('',#2070,#2071,#2072);
#2070 = CARTESIAN_POINT('',(27.5,6.5,0.8));
#2071 = DIRECTION('',(0.,-0.,1.));
#2072 = DIRECTION('',(1.,5.551115123126E-16,0.));
#2073 = ORIENTED_EDGE('',*,*,#1914,.T.);
#2074 = CYLINDRICAL_SURFACE('',#2075,1.6);
#2075 = AXIS2_PLACEMENT_3D('',#2076,#2077,#2078);
#2076 = CARTESIAN_POINT('',(27.5,6.5,2.6));
#2077 = DIRECTION('',(0.,0.,1.));
#2078 = DIRECTION('',(1.,5.551115123126E-16,0.));
#2079 = ADVANCED_FACE('',(#2080),#2091,.T.);
#2080 = FACE_BOUND('',#2081,.T.);
#2081 = EDGE_LOOP('',(#2082,#2083,#2089,#2090));
#2082 = ORIENTED_EDGE('',*,*,#1690,.F.);
#2083 = ORIENTED_EDGE('',*,*,#2084,.F.);
#2084 = EDGE_CURVE('',#1816,#1683,#2085,.T.);
#2085 = LINE('',#2086,#2087);
#2086 = CARTESIAN_POINT('',(-8.1,6.5,0.8));
#2087 = VECTOR('',#2088,1.);
#2088 = DIRECTION('',(-0.707106781187,-6.199460007841E-16,0.707106781187
    ));
#2089 = ORIENTED_EDGE('',*,*,#1824,.T.);
#2090 = ORIENTED_EDGE('',*,*,#1706,.F.);
#2091 = PLANE('',#2092);
#2092 = AXIS2_PLACEMENT_3D('',#2093,#2094,#2095);
#2093 = CARTESIAN_POINT('',(-8.1,6.5,0.8));
#2094 = DIRECTION('',(-0.707106781187,-0.,-0.707106781187));
#2095 = DIRECTION('',(0.707106781187,1.567122079946E-16,-0.707106781187)
  );
#2096 = ADVANCED_FACE('',(#2097),#2108,.T.);
#2097 = FACE_BOUND('',#2098,.T.);
#2098 = EDGE_LOOP('',(#2099,#2100,#2101,#2102));
#2099 = ORIENTED_EDGE('',*,*,#1732,.F.);
#2100 = ORIENTED_EDGE('',*,*,#1765,.F.);
#2101 = ORIENTED_EDGE('',*,*,#2014,.T.);
#2102 = ORIENTED_EDGE('',*,*,#2103,.F.);
#2103 = EDGE_CURVE('',#1733,#2015,#2104,.T.);
#2104 = LINE('',#2105,#2106);
#2105 = CARTESIAN_POINT('',(29.1,6.5,0.8));
#2106 = VECTOR('',#2107,1.);
#2107 = DIRECTION('',(-0.707106781187,-1.570092458684E-16,
    -0.707106781187));
#2108 = PLANE('',#2109);
#2109 = AXIS2_PLACEMENT_3D('',#2110,#2111,#2112);
#2110 = CARTESIAN_POINT('',(29.1,-6.5,0.8));
#2111 = DIRECTION('',(0.707106781187,0.,-0.707106781187));
#2112 = DIRECTION('',(-0.707106781187,-1.570092458684E-16,
    -0.707106781187));
#2113 = ADVANCED_FACE('',(#2114),#2125,.T.);
#2114 = FACE_BOUND('',#2115,.T.);
#2115 = EDGE_LOOP('',(#2116,#2117,#2123,#2124));
#2116 = ORIENTED_EDGE('',*,*,#2049,.F.);
#2117 = ORIENTED_EDGE('',*,*,#2118,.T.);
#2118 = EDGE_CURVE('',#1892,#1808,#2119,.T.);
#2119 = LINE('',#2120,#2121);
#2120 = CARTESIAN_POINT('',(-6.5,8.1,0.8));
#2121 = VECTOR('',#2122,1.);
#2122 = DIRECTION('',(4.300076493795E-17,-0.707106781187,-0.707106781187
    ));
#2123 = ORIENTED_EDGE('',*,*,#1815,.T.);
#2124 = ORIENTED_EDGE('',*,*,#2084,.T.);
#2125 = CONICAL_SURFACE('',#2126,1.6,0.785398163397);
#2126 = AXIS2_PLACEMENT_3D('',#2127,#2128,#2129);
#2127 = CARTESIAN_POINT('',(-6.5,6.5,0.8));
#2128 = DIRECTION('',(0.,0.,1.));
#2129 = DIRECTION('',(1.,5.551115123126E-16,0.));
#2130 = ADVANCED_FACE('',(#2131),#2137,.T.);
#2131 = FACE_BOUND('',#2132,.T.);
#2132 = EDGE_LOOP('',(#2133,#2134,#2135,#2136));
#2133 = ORIENTED_EDGE('',*,*,#1891,.F.);
#2134 = ORIENTED_EDGE('',*,*,#1875,.F.);
#2135 = ORIENTED_EDGE('',*,*,#1807,.T.);
#2136 = ORIENTED_EDGE('',*,*,#2118,.F.);
#2137 = PLANE('',#2138);
#2138 = AXIS2_PLACEMENT_3D('',#2139,#2140,#2141);
#2139 = CARTESIAN_POINT('',(6.5,8.1,0.8));
#2140 = DIRECTION('',(0.,0.707106781187,-0.707106781187));
#2141 = DIRECTION('',(4.300076493795E-17,-0.707106781187,-0.707106781187
    ));
#2142 = ADVANCED_FACE('',(#2143),#2154,.T.);
#2143 = FACE_BOUND('',#2144,.T.);
#2144 = EDGE_LOOP('',(#2145,#2146,#2152,#2153));
#2145 = ORIENTED_EDGE('',*,*,#1922,.F.);
#2146 = ORIENTED_EDGE('',*,*,#2147,.F.);
#2147 = EDGE_CURVE('',#2023,#1915,#2148,.T.);
#2148 = LINE('',#2149,#2150);
#2149 = CARTESIAN_POINT('',(27.5,8.1,0.8));
#2150 = VECTOR('',#2151,1.);
#2151 = DIRECTION('',(4.329780281177E-17,0.707106781187,0.707106781187)
  );
#2152 = ORIENTED_EDGE('',*,*,#2031,.T.);
#2153 = ORIENTED_EDGE('',*,*,#1938,.F.);
#2154 = PLANE('',#2155);
#2155 = AXIS2_PLACEMENT_3D('',#2156,#2157,#2158);
#2156 = CARTESIAN_POINT('',(27.5,8.1,0.8));
#2157 = DIRECTION('',(0.,0.707106781187,-0.707106781187));
#2158 = DIRECTION('',(4.300076493795E-17,-0.707106781187,-0.707106781187
    ));
#2159 = ADVANCED_FACE('',(#2160),#2166,.T.);
#2160 = FACE_BOUND('',#2161,.T.);
#2161 = EDGE_LOOP('',(#2162,#2163,#2164,#2165));
#2162 = ORIENTED_EDGE('',*,*,#2067,.F.);
#2163 = ORIENTED_EDGE('',*,*,#2103,.T.);
#2164 = ORIENTED_EDGE('',*,*,#2022,.T.);
#2165 = ORIENTED_EDGE('',*,*,#2147,.T.);
#2166 = CONICAL_SURFACE('',#2167,1.6,0.785398163397);
#2167 = AXIS2_PLACEMENT_3D('',#2168,#2169,#2170);
#2168 = CARTESIAN_POINT('',(27.5,6.5,0.8));
#2169 = DIRECTION('',(0.,0.,1.));
#2170 = DIRECTION('',(1.,0.,0.));
#2171 = ( GEOMETRIC_REPRESENTATION_CONTEXT(3) 
GLOBAL_UNCERTAINTY_ASSIGNED_CONTEXT((#2175)) 
GLOBAL_UNIT_ASSIGNED_CONTEXT((#2172,#2173,#2174)) REPRESENTATION_CONTEXT
('Context #1','3D Context with UNIT and UNCERTAINTY') );
#2172 = ( LENGTH_UNIT() NAMED_UNIT(*) SI_UNIT(.MILLI.,.METRE.) );
#2173 = ( NAMED_UNIT(*) PLANE_ANGLE_UNIT() SI_UNIT($,.RADIAN.) );
#2174 = ( NAMED_UNIT(*) SI_UNIT($,.STERADIAN.) SOLID_ANGLE_UNIT() );
#2175 = UNCERTAINTY_MEASURE_WITH_UNIT(LENGTH_MEASURE(5.E-07),#2172,
  'distance_accuracy_value','confusion accuracy');
#2176 = PRODUCT_RELATED_PRODUCT_CATEGORY('part',$,(#7));
#2177 = MECHANICAL_DESIGN_GEOMETRIC_PRESENTATION_REPRESENTATION('',(
    #2178),#2171);
#2178 = STYLED_ITEM('color',(#2179),#15);
#2179 = PRESENTATION_STYLE_ASSIGNMENT((#2180,#2186));
#2180 = SURFACE_STYLE_USAGE(.BOTH.,#2181);
#2181 = SURFACE_SIDE_STYLE('',(#2182));
#2182 = SURFACE_STYLE_FILL_AREA(#2183);
#2183 = FILL_AREA_STYLE('',(#2184));
#2184 = FILL_AREA_STYLE_COLOUR('',#2185);
#2185 = COLOUR_RGB('',0.506983342831,0.703088647506,0.955222359459);
#2186 = CURVE_STYLE('',#2187,POSITIVE_LENGTH_MEASURE(0.1),#2188);
#2187 = DRAUGHTING_PRE_DEFINED_CURVE_FONT('continuous');
#2188 = COLOUR_RGB('',9.803921802644E-02,9.803921802644E-02,
  9.803921802644E-02);
ENDSEC;
END-ISO-10303-21;
